# Blender v2.79 (sub 0) OBJ File: ''
# www.blender.org
mtllib building9.mtl
o SketchUp.016_ID159
v 9.955570 11.376497 -3.845776
v 9.650770 11.376497 -8.500326
v 9.650770 11.376497 -3.845776
v 9.955570 11.376497 -8.500326
v 9.955570 13.395798 -8.500326
v 9.650770 11.376497 -8.500326
v 9.955570 11.376497 -8.500326
v 9.650770 13.395798 -8.500326
v 9.955570 13.395798 -8.500326
v 9.650770 13.395798 -3.845776
v 9.650770 13.395798 -8.500326
v 9.955570 13.395798 -3.845776
vn 0.0000 1.0000 0.0000
vn 0.0000 0.0000 1.0000
vn 0.0000 -1.0000 0.0000
usemtl material
s off
f 1//1 2//1 3//1
f 2//1 1//1 4//1
f 5//2 6//2 7//2
f 6//2 5//2 8//2
f 9//3 10//3 11//3
f 10//3 9//3 12//3
o SketchUp.015_ID151
v 9.650770 11.376497 -8.500326
v 9.650770 13.395798 -3.845776
v 9.650770 11.376497 -3.845776
v 9.650770 13.395798 -8.500326
vt 13.944110 18.662230
vt 6.308689 21.974730
vt 6.308689 18.662230
vt 13.944110 21.974730
vn 1.0000 0.0000 0.0000
usemtl __Chalk_
s off
f 13/1/4 14/2/4 15/3/4
f 14/2/4 13/1/4 16/4/4
o SketchUp.014_ID145
v 9.955570 6.271611 -5.343403
v 9.669821 6.271611 -11.052053
v 9.669821 6.271611 -5.343403
v 9.955570 6.271611 -11.052053
v 9.955570 8.716360 -11.052053
v 9.669821 6.271611 -11.052053
v 9.955570 6.271611 -11.052053
v 9.669821 8.716360 -11.052053
v 9.669821 8.716360 -5.343403
v 9.955570 6.271611 -5.343403
v 9.669821 6.271611 -5.343403
v 9.955570 8.716360 -5.343403
v 9.955570 8.716360 -11.052053
v 9.669821 8.716360 -5.343403
v 9.669821 8.716360 -11.052053
v 9.955570 8.716360 -5.343403
vn 0.0000 1.0000 0.0000
vn 0.0000 0.0000 1.0000
vn 0.0000 0.0000 -1.0000
vn 0.0000 -1.0000 0.0000
usemtl material
s off
f 17//5 18//5 19//5
f 18//5 17//5 20//5
f 21//6 22//6 23//6
f 22//6 21//6 24//6
f 25//7 26//7 27//7
f 26//7 25//7 28//7
f 29//8 30//8 31//8
f 30//8 29//8 32//8
o SketchUp.013_ID137
v 9.669821 6.271611 -11.052053
v 9.669821 8.716360 -5.343403
v 9.669821 6.271611 -5.343403
v 9.669821 8.716360 -11.052053
vt 18.130011 10.288070
vt 8.765426 14.298490
vt 8.765426 10.288070
vt 18.130011 14.298490
vn 1.0000 0.0000 0.0000
usemtl __Chalk_
s off
f 33/5/9 34/6/9 35/7/9
f 34/6/9 33/5/9 36/8/9
o SketchUp.012_ID131
v 9.955570 5.119820 -10.964106
v 9.720620 5.119820 -5.642806
v 9.720620 5.119820 -10.964106
v 9.955570 5.119820 -5.642806
v 9.720620 5.119820 -5.642806
v 9.955570 2.370269 -5.642806
v 9.720620 2.370269 -5.642806
v 9.955570 5.119820 -5.642806
v 9.955570 5.119820 -10.964106
v 9.720620 2.370269 -10.964106
v 9.955570 2.370269 -10.964106
v 9.720620 5.119820 -10.964106
v 9.955570 2.370269 -5.642806
v 9.720620 2.370269 -10.964106
v 9.720620 2.370269 -5.642806
v 9.955570 2.370269 -10.964106
vn 0.0000 -1.0000 0.0000
vn 0.0000 0.0000 -1.0000
vn 0.0000 0.0000 1.0000
vn 0.0000 1.0000 0.0000
usemtl material
s off
f 37//10 38//10 39//10
f 38//10 37//10 40//10
f 41//11 42//11 43//11
f 42//11 41//11 44//11
f 45//12 46//12 47//12
f 46//12 45//12 48//12
f 49//13 50//13 51//13
f 50//13 49//13 52//13
o SketchUp.011_ID123
v 9.720620 2.370269 -10.964106
v 9.720620 5.119820 -5.642806
v 9.720620 2.370269 -5.642806
v 9.720620 5.119820 -10.964106
vt 17.985741 3.888236
vt 9.256570 8.398652
vt 9.256570 3.888236
vt 17.985741 8.398652
vn 1.0000 0.0000 0.0000
usemtl __Chalk_
s off
f 53/9/14 54/10/14 55/11/14
f 54/10/14 53/9/14 56/12/14
o SketchUp.010_ID117
v 7.921521 2.330060 -4.163276
v 7.921521 0.000000 -3.845776
v 7.921521 2.330060 -3.845776
v 7.921521 0.000000 -4.163276
v 7.921521 2.330060 -4.163276
v 5.591462 2.330060 -3.845776
v 5.591462 2.330060 -4.163276
v 7.921521 2.330060 -3.845776
v 5.591462 0.000000 -4.163276
v 5.591462 2.330060 -3.845776
v 5.591462 0.000000 -3.845776
v 5.591462 2.330060 -4.163276
vn -1.0000 0.0000 0.0000
vn 0.0000 -1.0000 0.0000
vn 1.0000 0.0000 0.0000
usemtl material
s off
f 57//15 58//15 59//15
f 58//15 57//15 60//15
f 61//16 62//16 63//16
f 62//16 61//16 64//16
f 65//17 66//17 67//17
f 66//17 65//17 68//17
o SketchUp.009_ID109
v 7.921521 2.330060 -4.163276
v 5.591462 0.000000 -4.163276
v 7.921521 0.000000 -4.163276
v 5.591462 2.330060 -4.163276
vt 12.994620 3.822277
vt 9.172345 0.000000
vt 12.994620 0.000000
vt 9.172345 3.822277
vn 0.0000 0.0000 1.0000
usemtl __Chalk_
s off
f 69/13/18 70/14/18 71/15/18
f 70/14/18 69/13/18 72/16/18
o SketchUp.008_ID103
v 9.586391 2.853197 -3.845776
v 8.017941 2.853197 -4.302976
v 8.017941 2.853197 -3.845776
v 9.586391 2.853197 -4.302976
v 9.586391 5.391003 -4.302976
v 9.586391 2.853197 -3.845776
v 9.586391 5.391003 -3.845776
v 9.586391 2.853197 -4.302976
v 8.017941 2.853197 -4.302976
v 8.017941 5.391003 -3.845776
v 8.017941 2.853197 -3.845776
v 8.017941 5.391003 -4.302976
v 9.586391 5.391003 -4.302976
v 8.017941 5.391003 -3.845776
v 8.017941 5.391003 -4.302976
v 9.586391 5.391003 -3.845776
vn 0.0000 1.0000 0.0000
vn -1.0000 0.0000 0.0000
vn 1.0000 0.0000 0.0000
vn 0.0000 -1.0000 0.0000
usemtl material
s off
f 73//19 74//19 75//19
f 74//19 73//19 76//19
f 77//20 78//20 79//20
f 78//20 77//20 80//20
f 81//21 82//21 83//21
f 82//21 81//21 84//21
f 85//22 86//22 87//22
f 86//22 85//22 88//22
o SketchUp.007_ID95
v 9.586391 5.391003 -4.302976
v 8.017941 2.853197 -4.302976
v 9.586391 2.853197 -4.302976
v 8.017941 5.391003 -4.302976
vt 15.725710 8.843508
vt 13.152790 4.680441
vt 15.725710 4.680441
vt 13.152790 8.843508
vn 0.0000 0.0000 1.0000
usemtl __Chalk_
s off
f 89/17/23 90/18/23 91/19/23
f 90/18/23 89/17/23 92/20/23
o SketchUp.006_ID89
v 7.053811 5.383789 -4.379176
v 4.501111 5.383789 -3.845776
v 4.501111 5.383789 -4.379176
v 7.053811 5.383789 -3.845776
v 4.501111 2.831089 -4.379176
v 4.501111 5.383789 -3.845776
v 4.501111 2.831089 -3.845776
v 4.501111 5.383789 -4.379176
v 7.053811 5.383789 -4.379176
v 7.053811 2.831089 -3.845776
v 7.053811 5.383789 -3.845776
v 7.053811 2.831089 -4.379176
v 7.053811 2.831089 -3.845776
v 4.501111 2.831089 -4.379176
v 4.501111 2.831089 -3.845776
v 7.053811 2.831089 -4.379176
vn 0.0000 -1.0000 0.0000
vn 1.0000 0.0000 0.0000
vn -1.0000 0.0000 0.0000
vn 0.0000 1.0000 0.0000
usemtl material
s off
f 93//24 94//24 95//24
f 94//24 93//24 96//24
f 97//25 98//25 99//25
f 98//25 97//25 100//25
f 101//26 102//26 103//26
f 102//26 101//26 104//26
f 105//27 106//27 107//27
f 106//27 105//27 108//27
o SketchUp.005_ID81
v 7.053811 5.383789 -4.379176
v 4.501111 2.831089 -4.379176
v 7.053811 2.831089 -4.379176
v 4.501111 5.383789 -4.379176
vt 11.571210 8.831675
vt 7.383713 4.644175
vt 11.571210 4.644175
vt 7.383713 8.831675
vn 0.0000 0.0000 1.0000
usemtl __Chalk_
s off
f 109/21/28 110/22/28 111/23/28
f 110/22/28 109/21/28 112/24/28
o SketchUp.004_ID75
v 9.454881 8.114271 -4.315676
v 9.454881 5.828271 -3.845776
v 9.454881 8.114271 -3.845776
v 9.454881 5.828271 -4.315676
v 9.454881 8.114271 -4.315676
v 4.832080 8.114271 -3.845776
v 4.832080 8.114271 -4.315676
v 9.454881 8.114271 -3.845776
v 9.454881 5.828271 -3.845776
v 4.832080 5.828271 -4.315676
v 4.832080 5.828271 -3.845776
v 9.454881 5.828271 -4.315676
v 4.832080 5.828271 -4.315676
v 4.832080 8.114271 -3.845776
v 4.832080 5.828271 -3.845776
v 4.832080 8.114271 -4.315676
vn -1.0000 0.0000 0.0000
vn 0.0000 -1.0000 0.0000
vn 0.0000 1.0000 0.0000
vn 1.0000 0.0000 0.0000
usemtl material
s off
f 113//29 114//29 115//29
f 114//29 113//29 116//29
f 117//30 118//30 119//30
f 118//30 117//30 120//30
f 121//31 122//31 123//31
f 122//31 121//31 124//31
f 125//32 126//32 127//32
f 126//32 125//32 128//32
o SketchUp.003_ID67
v 9.454881 8.114271 -4.315676
v 4.832080 5.828271 -4.315676
v 9.454881 5.828271 -4.315676
v 4.832080 8.114271 -4.315676
vt 15.509970 13.310810
vt 7.926640 9.560811
vt 15.509970 9.560811
vt 7.926640 13.310810
vn 0.0000 0.0000 1.0000
usemtl __Chalk_
s off
f 129/25/33 130/26/33 131/27/33
f 130/26/33 129/25/33 132/28/33
o SketchUp.002_ID59
v 5.420891 9.392165 -4.322026
v 5.420891 11.601965 -3.845776
v 5.420891 9.392165 -3.845776
v 5.420891 11.601965 -4.322026
v 8.996421 9.392165 -3.845776
v 5.420891 9.392165 -4.322026
v 5.420891 9.392165 -3.845776
v 8.996421 9.392165 -4.322026
v 8.996421 11.601965 -4.322026
v 5.420891 11.601965 -3.845776
v 5.420891 11.601965 -4.322026
v 8.996421 11.601965 -3.845776
v 8.996421 11.601965 -4.322026
v 8.996421 9.392165 -3.845776
v 8.996421 11.601965 -3.845776
v 8.996421 9.392165 -4.322026
vn 1.0000 0.0000 0.0000
vn 0.0000 1.0000 0.0000
vn 0.0000 -1.0000 0.0000
vn -1.0000 0.0000 0.0000
usemtl material
s off
f 133//34 134//34 135//34
f 134//34 133//34 136//34
f 137//35 138//35 139//35
f 138//35 137//35 140//35
f 141//36 142//36 143//36
f 142//36 141//36 144//36
f 145//37 146//37 147//37
f 146//37 145//37 148//37
o SketchUp.001_ID46
v 8.996421 11.601965 -4.322026
v 5.420891 9.392165 -4.322026
v 8.996421 9.392165 -4.322026
v 5.420891 11.601965 -4.322026
vt 14.757910 19.032101
vt 8.892536 15.407100
vt 14.757910 15.407100
vt 8.892536 19.032101
vn 0.0000 0.0000 1.0000
usemtl __Chalk_
s off
f 149/29/38 150/30/38 151/31/38
f 150/30/38 149/29/38 152/32/38
o SketchUp_ID33
v 9.955570 0.000000 -12.831026
v 3.408720 0.000000 -3.845776
v 3.408720 0.000000 -12.831026
v 5.591462 0.000000 -4.163276
v 7.921521 0.000000 -4.163276
v 7.921521 0.000000 -3.845776
v 9.955570 0.000000 -3.845776
v 5.591462 0.000000 -3.845776
v 9.955570 11.376497 -3.845776
v 9.955570 8.716360 -5.343403
v 9.955570 11.376497 -8.500326
v 9.955570 6.271611 -5.343403
v 9.955570 8.716360 -11.052053
v 9.955570 13.395798 -8.500326
v 9.955570 0.000000 -3.845776
v 9.955570 2.370269 -5.642806
v 9.955570 0.000000 -12.831026
v 9.955570 2.370269 -10.964106
v 9.955570 5.119820 -10.964106
v 9.955570 6.271611 -11.052053
v 9.955570 14.966949 -3.845776
v 9.955570 13.395798 -3.845776
v 9.955570 14.966949 -12.831026
v 9.955570 5.119820 -5.642806
v 7.053811 2.831089 -3.845776
v 8.017941 2.853197 -3.845776
v 7.053811 5.383789 -3.845776
v 9.586391 2.853197 -3.845776
v 8.017941 5.391003 -3.845776
v 4.501111 5.383789 -3.845776
v 9.955570 0.000000 -3.845776
v 7.921521 0.000000 -3.845776
v 9.955570 11.376497 -3.845776
v 7.921521 2.330060 -3.845776
v 5.591462 2.330060 -3.845776
v 9.586391 5.391003 -3.845776
v 9.454881 5.828271 -3.845776
v 9.454881 8.114271 -3.845776
v 8.996421 9.392165 -3.845776
v 4.832080 8.114271 -3.845776
v 9.650770 11.376497 -3.845776
v 8.996421 11.601965 -3.845776
v 9.650770 13.395798 -3.845776
v 5.420891 11.601965 -3.845776
v 9.955570 14.966949 -3.845776
v 9.955570 13.395798 -3.845776
v 3.408720 0.000000 -3.845776
v 5.591462 0.000000 -3.845776
v 4.501111 2.831089 -3.845776
v 3.408720 14.966949 -3.845776
v 4.832080 5.828271 -3.845776
v 5.420891 9.392165 -3.845776
v 3.408720 14.966949 -12.831026
v 3.408720 0.000000 -3.845776
v 3.408720 14.966949 -3.845776
v 3.408720 0.000000 -12.831026
v 3.408720 14.966949 -12.831026
v 9.955570 0.000000 -12.831026
v 3.408720 0.000000 -12.831026
v 9.955570 14.966949 -12.831026
v 9.955570 14.966949 -3.845776
v 3.408720 14.966949 -12.831026
v 3.408720 14.966949 -3.845776
v 9.955570 14.966949 -12.831026
vt -10.887540 24.437000
vt -3.727822 7.324374
vt -3.727822 24.437000
vt -6.114897 7.929060
vt -8.663082 7.929060
vt -8.663082 7.324374
vt -10.887540 7.324374
vt -6.114897 7.324374
vt 4.205793 21.666809
vt 5.843617 16.600510
vt 9.296070 21.666809
vt 5.843617 11.944430
vt 12.086670 16.600510
vt 9.296070 25.512621
vt 4.205793 0.000000
vt 6.171047 4.514233
vt 14.032180 0.000000
vt 11.990490 4.514233
vt 11.990490 9.750816
vt 12.086670 11.944430
vt 4.205793 28.504910
vt 4.205793 25.512621
vt 14.032180 28.504910
vt 6.171047 9.750816
vt 7.714142 5.391877
vt 8.768528 5.433981
vt 7.714142 10.253560
vt 10.483810 5.433981
vt 8.768528 10.267290
vt 4.922475 10.253560
vt 10.887540 0.000000
vt 8.663082 0.000000
vt 10.887540 21.666809
vt 8.663082 4.437655
vt 6.114897 4.437655
vt 10.483810 10.267290
vt 10.339980 11.100080
vt 10.339980 15.453820
vt 9.838606 17.887600
vt 5.284426 15.453820
vt 10.554210 21.666809
vt 9.838606 22.096220
vt 10.554210 25.512621
vt 5.928358 22.096220
vt 10.887540 28.504910
vt 10.887540 25.512621
vt 3.727822 0.000000
vt 6.114897 0.000000
vt 4.922475 5.391877
vt 3.727822 28.504910
vt 5.284426 11.100080
vt 5.928358 17.887600
vt -14.032180 28.504910
vt -4.205793 0.000000
vt -4.205793 28.504910
vt -14.032180 0.000000
vt -3.727822 28.504910
vt -10.887540 0.000000
vt -3.727822 0.000000
vt -10.887540 28.504910
vt 10.887540 7.324374
vt 3.727822 24.437000
vt 3.727822 7.324374
vt 10.887540 24.437000
vn 0.0000 -1.0000 0.0000
vn 1.0000 0.0000 0.0000
vn 0.0000 0.0000 1.0000
vn -1.0000 0.0000 0.0000
vn 0.0000 0.0000 -1.0000
vn 0.0000 1.0000 0.0000
usemtl __Paver_Hex_
s off
f 153/33/39 154/34/39 155/35/39
f 154/34/39 153/33/39 156/36/39
f 156/36/39 153/33/39 157/37/39
f 157/37/39 153/33/39 158/38/39
f 158/38/39 153/33/39 159/39/39
f 160/40/39 154/34/39 156/36/39
f 161/41/40 162/42/40 163/43/40
f 162/42/40 161/41/40 164/44/40
f 163/43/40 162/42/40 165/45/40
f 163/43/40 165/45/40 166/46/40
f 167/47/40 168/48/40 161/41/40
f 168/48/40 167/47/40 169/49/40
f 161/41/40 168/48/40 164/44/40
f 168/48/40 169/49/40 170/50/40
f 170/50/40 169/49/40 171/51/40
f 171/51/40 169/49/40 172/52/40
f 172/52/40 169/49/40 165/45/40
f 166/46/40 173/53/40 174/54/40
f 173/53/40 166/46/40 175/55/40
f 175/55/40 166/46/40 165/45/40
f 175/55/40 165/45/40 169/49/40
f 164/44/40 176/56/40 172/52/40
f 176/56/40 164/44/40 168/48/40
f 172/52/40 176/56/40 171/51/40
f 177/57/41 178/58/41 179/59/41
f 178/58/41 177/57/41 180/60/41
f 179/59/41 178/58/41 181/61/41
f 179/59/41 181/61/41 182/62/41
f 183/63/41 180/60/41 184/64/41
f 180/60/41 183/63/41 185/65/41
f 184/64/41 180/60/41 186/66/41
f 186/66/41 180/60/41 187/67/41
f 187/67/41 180/60/41 177/57/41
f 180/60/41 185/65/41 188/68/41
f 188/68/41 185/65/41 189/69/41
f 188/68/41 189/69/41 181/61/41
f 189/69/41 185/65/41 190/70/41
f 190/70/41 185/65/41 191/71/41
f 190/70/41 191/71/41 192/72/41
f 191/71/41 185/65/41 193/73/41
f 191/71/41 193/73/41 194/74/41
f 194/74/41 193/73/41 195/75/41
f 194/74/41 195/75/41 196/76/41
f 197/77/41 195/75/41 198/78/41
f 187/67/41 199/79/41 200/80/41
f 199/79/41 187/67/41 201/81/41
f 199/79/41 201/81/41 202/82/41
f 201/81/41 187/67/41 177/57/41
f 202/82/41 201/81/41 182/62/41
f 202/82/41 182/62/41 203/83/41
f 203/83/41 182/62/41 181/61/41
f 203/83/41 181/61/41 189/69/41
f 202/82/41 203/83/41 192/72/41
f 202/82/41 192/72/41 204/84/41
f 204/84/41 192/72/41 191/71/41
f 202/82/41 204/84/41 196/76/41
f 202/82/41 196/76/41 195/75/41
f 202/82/41 195/75/41 197/77/41
f 205/85/42 206/86/42 207/87/42
f 206/86/42 205/85/42 208/88/42
f 209/89/43 210/90/43 211/91/43
f 210/90/43 209/89/43 212/92/43
f 213/93/44 214/94/44 215/95/44
f 214/94/44 213/93/44 216/96/44
o instance_0.002_ID29
v 0.885117 0.388021 -0.776188
v 0.927275 0.303562 -0.805893
l 218 217
o group_0.004_ID7
v 0.637208 1.399927 -0.601509
v 0.629024 1.495710 -0.595743
v 0.630193 1.325588 -0.596566
v 0.619542 1.250453 -0.589061
l 220 219
l 219 221
l 221 222
o instance_0.001_ID25
v 0.842793 1.662012 -0.746366
v 0.838417 1.668254 -0.743283
v 0.847533 1.665579 -0.749706
v 0.837911 1.688234 -0.742927
l 224 223
l 223 225
l 224 226
o group_0.003_ID7
v 0.637208 1.399927 -0.601509
v 0.629024 1.495710 -0.595743
v 0.630193 1.325588 -0.596566
v 0.619542 1.250453 -0.589061
l 228 227
l 227 229
l 229 230
o group_0.002_ID7
v 25.086937 55.115250 -23.681463
v 24.764734 58.886227 -23.454435
v 24.810764 52.188526 -23.486868
v 24.391413 49.230427 -23.191389
l 232 231
l 231 233
l 233 234
