# Blender v2.79 (sub 0) OBJ File: ''
# www.blender.org
mtllib building13.mtl
o SketchUp.014_ID146
v 12.520143 115.187935 -20.475809
v -20.658607 115.187935 -34.624466
v -20.658607 115.187935 -20.475809
v -4.069232 115.187935 -34.624466
v 12.520143 115.187935 -34.624466
vn 0.0000 1.0000 0.0000
usemtl material
s off
f 1//1 2//1 3//1
f 2//1 1//1 4//1
f 4//1 1//1 5//1
o SketchUp.013_ID138
v 12.520143 115.187935 -20.475809
v 12.520143 125.065689 10.797071
v 12.520143 115.187935 10.797071
v 12.520143 125.065689 -20.475809
v 12.520143 125.065689 -20.475809
v 12.520143 115.187935 -20.475809
v 12.520143 125.065689 10.797071
v 12.520143 115.187935 10.797071
v 12.520143 125.065689 10.797071
v -4.069232 115.187935 10.797071
v 12.520143 115.187935 10.797071
v -4.069232 125.065689 10.797071
v -4.069232 125.065689 10.797071
v 12.520143 125.065689 10.797071
v -4.069232 115.187935 10.797071
v 12.520143 115.187935 10.797071
vt 12.942840 94.478287
vt -6.824871 102.580101
vt -6.824871 94.478287
vt 12.942840 102.580101
vt 12.942840 102.580101
vt 12.942840 94.478287
vt -6.824871 102.580101
vt -6.824871 94.478287
vt 7.914032 102.580101
vt -2.572178 94.478287
vt 7.914032 94.478287
vt -2.572178 102.580101
vt -2.572178 102.580101
vt 7.914032 102.580101
vt -2.572178 94.478287
vt 7.914032 94.478287
vn 1.0000 0.0000 0.0000
vn -1.0000 0.0000 0.0000
vn 0.0000 0.0000 1.0000
vn 0.0000 0.0000 -1.0000
usemtl Fencing_Metal_Straight
s off
f 6/1/2 7/2/2 8/3/2
f 7/2/2 6/1/2 9/4/2
f 10/5/3 11/6/3 12/7/3
f 13/8/3 12/7/3 11/6/3
f 14/9/4 15/10/4 16/11/4
f 15/10/4 14/9/4 17/12/4
f 18/13/5 19/14/5 20/15/5
f 21/16/5 20/15/5 19/14/5
o SketchUp.012_ID125
v -20.658607 125.271507 -20.475809
v -20.658607 115.187935 -4.408696
v -20.658607 125.271507 -4.408696
v -20.658607 115.187935 -20.475809
v -20.658607 125.065689 -20.475809
v -20.658607 125.065689 -20.475809
v -20.658607 125.271507 -20.475809
v -20.658607 115.187935 -20.475809
v -20.658607 115.187935 -4.408696
v -20.658607 125.271507 -4.408696
vt -12.942840 102.748901
vt -2.786754 94.478287
vt -2.786754 102.748901
vt -12.942840 94.478287
vt -12.942840 102.580101
vt -12.942840 102.580101
vt -12.942840 102.748901
vt -12.942840 94.478287
vt -2.786754 94.478287
vt -2.786754 102.748901
vn -1.0000 0.0000 0.0000
vn 1.0000 0.0000 0.0000
vn 0.0000 0.0000 1.0000
usemtl Fencing_Metal_Straight
s off
f 22/17/6 23/18/6 24/19/6
f 23/18/6 22/17/6 25/20/6
f 25/20/7 22/17/7 26/21/7
f 27/22/8 28/23/8 29/24/8
f 29/24/7 28/23/7 30/25/7
f 31/26/7 30/25/7 28/23/7
o SketchUp.011_ID112
v -20.658607 139.463989 -27.550135
v -4.069232 129.905243 -34.624466
v -20.658607 129.905243 -34.624466
v 12.520143 129.905243 -34.624466
v 12.520143 139.463989 -27.550135
v 12.520143 139.463989 -27.550135
v -20.658607 129.905243 -20.475809
v 12.520143 129.905243 -20.475809
v -20.658607 139.463989 -27.550135
vt 36.969589 230.120300
vt 7.282091 201.529007
vt 36.969589 201.529007
vt -22.405411 201.529007
vt -22.405411 230.120300
vt 22.405411 308.929291
vt -36.969589 280.338013
vt 22.405411 280.338013
vt -36.969589 308.929291
vn 0.0000 0.5949 -0.8038
vn 0.0000 0.5949 0.8038
usemtl Roofing_Shingles_GAF_Estates
s off
f 32/27/9 33/28/9 34/29/9
f 33/28/9 32/27/9 35/30/9
f 35/30/9 32/27/9 36/31/9
f 37/32/10 38/33/10 39/34/10
f 38/33/10 37/32/10 40/35/10
o SketchUp.010_ID104
v 12.520143 115.187935 10.797071
v -4.069232 115.187935 -4.408696
v -4.069232 115.187935 10.797071
v -20.658607 115.187935 -20.475809
v -20.658607 115.187935 -4.408696
v 12.520143 115.187935 -20.475809
vt 20.538290 -17.711729
vt -6.675250 7.232113
vt -6.675250 -17.711729
vt -33.888790 33.588928
vt -33.888790 7.232113
vt 20.538290 33.588928
vn 0.0000 1.0000 0.0000
usemtl Vegetation_Grass_Artificial
s off
f 41/36/11 42/37/11 43/38/11
f 42/37/11 44/39/11 45/40/11
f 44/39/11 42/37/11 46/41/11
f 46/41/11 42/37/11 41/36/11
o SketchUp.009_ID98
v -20.658607 80.342125 -34.624466
v -4.069232 68.881882 -34.624466
v -20.658607 68.881882 -34.624466
v -4.069232 80.342125 -34.624466
v -4.069232 80.342125 -34.624466
v -20.658607 80.342125 -34.624466
v -4.069232 68.881882 -34.624466
v -20.658607 68.881882 -34.624466
v -20.658607 80.342125 -34.624466
v -20.658607 68.881882 -4.408696
v -20.658607 80.342125 -4.408696
v -20.658607 68.881882 -34.624466
v -20.658607 68.881882 -34.624466
v -20.658607 80.342125 -34.624466
v -20.658607 68.881882 -4.408696
v -20.658607 80.342125 -4.408696
vn 0.0000 0.0000 -1.0000
vn 0.0000 0.0000 1.0000
vn -1.0000 0.0000 0.0000
vn 1.0000 0.0000 0.0000
usemtl Translucent_Glass_Blue
s off
f 47//12 48//12 49//12
f 48//12 47//12 50//12
f 51//13 52//13 53//13
f 54//13 53//13 52//13
f 55//14 56//14 57//14
f 56//14 55//14 58//14
f 59//15 60//15 61//15
f 62//15 61//15 60//15
o SketchUp.008_ID85
v -20.658607 68.881882 -34.624466
v -4.069232 52.219479 -34.624466
v -20.658607 52.219479 -34.624466
v -4.069232 68.881882 -34.624466
v -4.069232 68.881882 -34.624466
v -20.658607 68.881882 -34.624466
v -4.069232 52.219479 -34.624466
v -20.658607 52.219479 -34.624466
vt 11.296260 37.665070
vt 2.225083 28.553961
vt 11.296260 28.553961
vt 2.225083 37.665070
vt 2.225083 37.665070
vt 11.296260 37.665070
vt 2.225083 28.553961
vt 11.296260 28.553961
vn 0.0000 0.0000 -1.0000
vn 0.0000 0.0000 1.0000
usemtl Translucent_Glass_Sky_Reflection
s off
f 63/42/16 64/43/16 65/44/16
f 64/43/16 63/42/16 66/45/16
f 67/46/17 68/47/17 69/48/17
f 70/49/17 69/48/17 68/47/17
o SketchUp.007_ID72
v -4.069232 68.881882 -4.408696
v -20.658607 68.881882 -34.624466
v -20.658607 68.881882 -4.408696
v -4.069232 68.881882 -34.624466
vt -6.675250 7.232113
vt -33.888790 56.798691
vt -33.888790 7.232113
vt -6.675250 56.798691
vn 0.0000 1.0000 0.0000
usemtl Vegetation_Grass_Artificial
s off
f 71/50/18 72/51/18 73/52/18
f 72/51/18 71/50/18 74/53/18
o SketchUp.006_ID64
v -20.658607 52.219479 -34.624466
v -4.069232 35.877499 -34.624466
v -20.658607 35.877499 -34.624466
v -4.069232 52.219479 -34.624466
v -4.069232 52.219479 -34.624466
v -20.658607 52.219479 -34.624466
v -4.069232 35.877499 -34.624466
v -20.658607 35.877499 -34.624466
v -20.658607 52.219479 -34.624466
v -20.658607 35.877499 -4.408696
v -20.658607 52.219479 -4.408696
v -20.658607 35.877499 -34.624466
v -20.658607 35.877499 -34.624466
v -20.658607 52.219479 -34.624466
v -20.658607 35.877499 -4.408696
v -20.658607 52.219479 -4.408696
vn 0.0000 0.0000 -1.0000
vn 0.0000 0.0000 1.0000
vn -1.0000 0.0000 0.0000
vn 1.0000 0.0000 0.0000
usemtl Translucent_Glass_Blue
s off
f 75//19 76//19 77//19
f 76//19 75//19 78//19
f 79//20 80//20 81//20
f 82//20 81//20 80//20
f 83//21 84//21 85//21
f 84//21 83//21 86//21
f 87//22 88//22 89//22
f 90//22 89//22 88//22
o SketchUp.005_ID56
v -20.658607 35.877499 -4.408696
v -18.875240 35.877499 -12.530873
v -20.658607 35.877499 -34.624466
v -4.069232 35.877499 -4.408696
v -7.908790 35.877499 -12.530873
v -7.908790 35.877499 -32.831810
v -18.875240 35.877499 -32.831810
v -4.069232 35.877499 -34.624466
vt -17.304911 5.424085
vt -15.811060 15.416920
vt -17.304911 42.599018
vt -3.408638 5.424085
vt -6.624887 15.416920
vt -6.624887 40.393478
vt -15.811060 40.393478
vt -3.408638 42.599018
vn 0.0000 1.0000 0.0000
usemtl Stone_Masonry_Multi
s off
f 91/54/23 92/55/23 93/56/23
f 92/55/23 91/54/23 94/57/23
f 92/55/23 94/57/23 95/58/23
f 95/58/23 94/57/23 96/59/23
f 93/56/23 97/60/23 98/61/23
f 97/60/23 93/56/23 92/55/23
f 98/61/23 97/60/23 96/59/23
f 98/61/23 96/59/23 94/57/23
o SketchUp.004_ID50
v -4.069232 52.219479 -34.624466
v -4.069232 35.877499 -4.408696
v -4.069232 52.219479 -4.408696
v -4.069232 35.877499 -34.624466
v -20.658607 52.219479 -4.408696
v -4.069232 35.877499 -4.408696
v -20.658607 35.877499 -4.408696
v -4.069232 52.219479 -4.408696
v -4.069232 52.219479 -4.408696
v -20.658607 52.219479 -34.624466
v -20.658607 52.219479 -4.408696
v -4.069232 52.219479 -34.624466
v -4.069232 68.881882 -34.624466
v -4.069232 68.881882 -4.408696
v -20.658607 68.881882 -4.408696
v -4.069232 68.881882 -4.408696
v -4.069232 80.342125 -34.624466
v -4.069232 80.342125 -4.408696
v -20.658607 80.342125 -4.408696
v -4.069232 80.342125 -4.408696
v -4.069232 80.342125 -4.408696
v -20.658607 80.342125 -34.624466
v -20.658607 80.342125 -4.408696
v -4.069232 80.342125 -34.624466
v -20.658607 115.187935 -4.408696
v -4.069232 115.187935 -4.408696
vn -1.0000 0.0000 0.0000
vn 0.0000 0.0000 -1.0000
vn 0.0000 1.0000 0.0000
usemtl material
s off
f 99//24 100//24 101//24
f 100//24 99//24 102//24
f 103//25 104//25 105//25
f 104//25 103//25 106//25
f 107//26 108//26 109//26
f 108//26 107//26 110//26
f 111//24 101//24 112//24
f 101//24 111//24 99//24
f 113//25 106//25 103//25
f 106//25 113//25 114//25
f 115//24 112//24 116//24
f 112//24 115//24 111//24
f 117//25 114//25 113//25
f 114//25 117//25 118//25
f 119//26 120//26 121//26
f 120//26 119//26 122//26
f 123//25 118//25 117//25
f 118//25 123//25 124//25
o SketchUp.003_ID37
v -7.908790 35.877499 -12.530873
v -18.875240 35.877499 -32.831810
v -18.875240 35.877499 -12.530873
v -7.908790 35.877499 -32.831810
vt -2.594748 4.111179
vt -6.192664 10.771600
vt -6.192664 4.111179
vt -2.594748 10.771600
vn 0.0000 1.0000 0.0000
usemtl Water_Sparkling
s off
f 125/62/27 126/63/27 127/64/27
f 126/63/27 125/62/27 128/65/27
o SketchUp.002_ID24
v 12.520143 115.187935 -34.624466
v 12.520143 125.065689 -20.475809
v 12.520143 115.187935 -20.475809
v 12.520143 129.905243 -20.475809
v 12.520143 139.463989 -27.550135
v 12.520143 129.905243 -34.624466
v 12.520143 125.065689 -20.475809
v -20.658607 115.187935 -20.475809
v 12.520143 115.187935 -20.475809
v -20.658607 125.065689 -20.475809
v -4.069232 129.905243 -34.624466
v 12.520143 115.187935 -34.624466
v -4.069232 115.187935 -34.624466
v 12.520143 129.905243 -34.624466
v 12.520143 129.905243 -20.475809
v -20.658607 125.271507 -20.475809
v -20.658607 129.905243 -20.475809
v -20.658607 139.463989 -27.550135
v -20.658607 125.271507 -20.475809
v -20.658607 129.905243 -20.475809
v -20.658607 125.065689 -20.475809
v -20.658607 115.187935 -20.475809
v -20.658607 115.187935 -34.624466
v -20.658607 129.905243 -34.624466
v -20.658607 129.905243 -34.624466
v -20.658607 115.187935 -34.624466
vt 29.003590 141.717407
vt 17.151791 153.870193
vt 17.151791 141.717407
vt 17.151791 159.824402
vt 23.077690 171.584595
vt 29.003590 159.824402
vt 10.487640 153.870193
vt -17.304911 141.717407
vt 10.487640 141.717407
vt -17.304911 153.870193
vt 3.408638 159.824402
vt -10.487640 141.717407
vt 3.408638 141.717407
vt -10.487640 159.824402
vt 10.487640 159.824402
vt -17.304911 154.123398
vt -17.304911 159.824402
vt -23.077690 171.584595
vt -17.151791 154.123398
vt -17.151791 159.824402
vt -17.151791 153.870193
vt -17.151791 141.717407
vt -29.003590 141.717407
vt -29.003590 159.824402
vt 17.304911 159.824402
vt 17.304911 141.717407
vn 1.0000 0.0000 0.0000
vn 0.0000 0.0000 1.0000
vn 0.0000 0.0000 -1.0000
vn -1.0000 0.0000 0.0000
usemtl Stone_Masonry_Multi
s off
f 129/66/28 130/67/28 131/68/28
f 130/67/28 129/66/28 132/69/28
f 132/69/28 129/66/28 133/70/28
f 133/70/28 129/66/28 134/71/28
f 135/72/29 136/73/29 137/74/29
f 136/73/29 135/72/29 138/75/29
f 139/76/30 140/77/30 141/78/30
f 140/77/30 139/76/30 142/79/30
f 143/80/29 138/75/29 135/72/29
f 138/75/29 143/80/29 144/81/29
f 144/81/29 143/80/29 145/82/29
f 146/83/31 147/84/31 148/85/31
f 147/84/31 146/83/31 149/86/31
f 149/86/31 146/83/31 150/87/31
f 150/87/31 146/83/31 151/88/31
f 151/88/31 146/83/31 152/89/31
f 153/90/30 141/78/30 154/91/30
f 141/78/30 153/90/30 139/76/30
o SketchUp.001_ID11
v 12.520143 115.187935 10.797071
v -20.658607 -0.000000 10.797071
v 12.520143 -0.000000 10.797071
v -4.069232 115.187935 10.797071
v -20.658607 159.613602 10.797071
v -4.069232 125.065689 10.797071
v -4.069232 159.613602 10.797071
v 12.520143 -0.000000 -34.624466
v 12.520143 115.187935 10.797071
v 12.520143 -0.000000 10.797071
v 12.520143 115.187935 -20.475809
v 12.520143 115.187935 -34.624466
v -4.069232 115.187935 10.797071
v -4.069232 159.613602 10.797071
v -4.069232 125.065689 10.797071
v -4.069232 115.187935 -4.408696
v -4.069232 159.613602 -4.408696
v -4.069232 159.613602 10.797071
v -20.658607 159.613602 -4.408696
v -20.658607 159.613602 10.797071
v -4.069232 159.613602 -4.408696
v -20.658607 159.613602 -4.408696
v -20.658607 -0.000000 10.797071
v -20.658607 159.613602 10.797071
v -20.658607 35.877499 -4.408696
v -20.658607 -0.000000 -34.624466
v -20.658607 125.271507 -4.408696
v -20.658607 115.187935 -4.408696
v -20.658607 80.342125 -4.408696
v -20.658607 68.881882 -4.408696
v -20.658607 52.219479 -4.408696
v -20.658607 35.877499 -34.624466
v -20.658607 35.877499 -34.624466
v 12.520143 -0.000000 -34.624466
v -20.658607 -0.000000 -34.624466
v -4.069232 35.877499 -34.624466
v 12.520143 115.187935 -34.624466
v -4.069232 52.219479 -34.624466
v -4.069232 68.881882 -34.624466
v -4.069232 80.342125 -34.624466
v -4.069232 115.187935 -34.624466
v -20.658607 125.271507 -4.408696
v -4.069232 115.187935 -4.408696
v -20.658607 115.187935 -4.408696
v -4.069232 159.613602 -4.408696
v -20.658607 159.613602 -4.408696
v -20.658607 115.187935 -20.475809
v -20.658607 80.342125 -34.624466
v -20.658607 115.187935 -34.624466
v -20.658607 68.881882 -34.624466
v -20.658607 52.219479 -34.624466
v -20.658607 115.187935 -34.624466
v -20.658607 80.342125 -34.624466
vt 82.153168 755.826294
vt -135.555206 -0.000000
vt 82.153168 -0.000000
vt -26.701000 755.826294
vt -135.555206 1047.333008
vt -26.701000 820.641113
vt -26.701000 1047.333008
vt 227.194702 -0.000000
vt -70.846916 755.826294
vt -70.846916 -0.000000
vt 134.355698 755.826294
vt 227.194702 755.826294
vt -70.846916 755.826294
vt -70.846916 1047.333008
vt -70.846916 820.641113
vt 28.928450 755.826294
vt 28.928450 1047.333008
vt -26.701000 -70.846916
vt -135.555206 28.928450
vt -135.555206 -70.846916
vt -26.701000 28.928450
vt -28.928450 1047.333008
vt 70.846916 -0.000000
vt 70.846916 1047.333008
vt -28.928450 235.416702
vt -227.194702 -0.000000
vt -28.928450 821.991516
vt -28.928450 755.826294
vt -28.928450 527.179321
vt -28.928450 451.980804
vt -28.928450 342.647491
vt -227.194702 235.416702
vt 135.555206 235.416702
vt -82.153168 -0.000000
vt 135.555206 -0.000000
vt 26.701000 235.416702
vt -82.153168 755.826294
vt 26.701000 342.647491
vt 26.701000 451.980804
vt 26.701000 527.179321
vt 26.701000 755.826294
vt 135.555206 821.991516
vt 26.701000 755.826294
vt 135.555206 755.826294
vt 26.701000 1047.333008
vt 135.555206 1047.333008
vt -134.355698 755.826294
vt -227.194702 527.179321
vt -227.194702 755.826294
vt -227.194702 451.980804
vt -227.194702 342.647491
vt 135.555206 755.826294
vt 135.555206 527.179321
vn 0.0000 0.0000 1.0000
vn 1.0000 0.0000 0.0000
vn 0.0000 1.0000 0.0000
vn -1.0000 0.0000 0.0000
vn 0.0000 0.0000 -1.0000
usemtl Metal_Steel_Textured_White
s off
f 155/92/32 156/93/32 157/94/32
f 156/93/32 155/92/32 158/95/32
f 156/93/32 158/95/32 159/96/32
f 159/96/32 158/95/32 160/97/32
f 159/96/32 160/97/32 161/98/32
f 162/99/33 163/100/33 164/101/33
f 163/100/33 162/99/33 165/102/33
f 165/102/33 162/99/33 166/103/33
f 167/104/32 168/105/32 169/106/32
f 168/105/33 167/104/33 170/107/33
f 168/105/33 170/107/33 171/108/33
f 172/109/34 173/110/34 174/111/34
f 173/110/34 172/109/34 175/112/34
f 176/113/35 177/114/35 178/115/35
f 177/114/35 176/113/35 179/116/35
f 177/114/35 179/116/35 180/117/35
f 179/116/32 176/113/32 181/118/32
f 179/116/35 181/118/35 182/119/35
f 179/116/33 182/119/33 183/120/33
f 179/116/35 183/120/35 184/121/35
f 179/116/33 184/121/33 185/122/33
f 180/117/35 179/116/35 186/123/35
f 187/124/36 188/125/36 189/126/36
f 188/125/36 187/124/36 190/127/36
f 188/125/36 190/127/36 191/128/36
f 191/128/36 190/127/36 192/129/36
f 191/128/36 192/129/36 193/130/36
f 191/128/36 193/130/36 194/131/36
f 191/128/36 194/131/36 195/132/36
f 196/133/36 197/134/36 198/135/36
f 197/134/36 196/133/36 199/136/36
f 199/136/36 196/133/36 200/137/36
f 201/138/35 183/120/35 182/119/35
f 183/120/35 201/138/35 202/139/35
f 202/139/35 201/138/35 203/140/35
f 204/141/35 185/122/35 184/121/35
f 185/122/35 204/141/35 205/142/35
f 206/143/36 194/131/36 207/144/36
f 194/131/36 206/143/36 195/132/36
o SketchUp_ID3
v 12.520143 -0.000000 -34.624466
v -20.658607 -0.000000 10.797071
v -20.658607 -0.000000 -34.624466
v 12.520143 -0.000000 10.797071
vn 0.0000 -1.0000 0.0000
usemtl material
s off
f 208//37 209//37 210//37
f 209//37 208//37 211//37
