# Blender v2.79 (sub 0) OBJ File: ''
# www.blender.org
mtllib building12.mtl
o SketchUp.010_ID232
v 20.243896 6.851252 -10.730782
v 19.266773 6.851252 -11.751868
v 19.266773 6.851252 -10.730782
v 19.266773 6.851252 -12.772959
v 20.243896 6.851252 -12.772959
v 21.221020 6.851252 -10.730782
v 21.221020 6.851252 -12.772959
v 21.221020 6.851252 -11.751868
vn 0.0000 1.0000 0.0000
vn 0.0000 0.0000 1.0000
usemtl material
s off
f 1//1 2//1 3//1
f 2//1 1//1 4//1
f 4//1 1//1 5//1
f 5//1 1//1 6//1
f 5//1 6//1 7//1
f 7//2 6//2 8//2
o SketchUp.009_ID226
v 20.243896 5.872500 -10.730782
v 19.266773 5.872500 -11.751868
v 19.266773 5.872500 -10.730782
v 19.266773 5.872500 -12.772959
v 20.243896 5.872500 -12.772959
v 21.221020 5.872500 -10.730782
v 21.221020 5.872500 -12.772959
v 21.221020 5.872500 -11.751868
vn 0.0000 1.0000 0.0000
vn 0.0000 0.0000 1.0000
usemtl material
s off
f 9//3 10//3 11//3
f 10//3 9//3 12//3
f 12//3 9//3 13//3
f 13//3 9//3 14//3
f 13//3 14//3 15//3
f 15//4 14//4 16//4
o SketchUp.008_ID220
v 20.243896 0.978750 -10.730782
v 19.266773 0.978750 -11.751868
v 19.266773 0.978750 -10.730782
v 19.266773 0.978750 -12.772959
v 20.243896 0.978750 -12.772959
v 21.221020 0.978750 -10.730782
v 21.221020 0.978750 -12.772959
v 21.221020 0.978750 -11.751868
vn 0.0000 1.0000 0.0000
vn 0.0000 0.0000 1.0000
usemtl material
s off
f 17//5 18//5 19//5
f 18//5 17//5 20//5
f 20//5 17//5 21//5
f 21//5 17//5 22//5
f 21//5 22//5 23//5
f 23//6 22//6 24//6
o SketchUp.007_ID214
v 20.243896 1.957500 -12.772959
v 19.266773 1.957500 -11.751868
v 19.266773 1.957500 -12.772959
v 19.266773 1.957500 -10.730782
v 20.243896 1.957500 -10.730782
v 21.221020 1.957500 -12.772959
v 21.221020 1.957500 -10.730782
v 21.221020 1.957500 -11.751868
vn 0.0000 -1.0000 0.0000
vn 0.0000 0.0000 1.0000
usemtl material
s off
f 25//7 26//7 27//7
f 26//7 25//7 28//7
f 28//7 25//7 29//7
f 29//7 25//7 30//7
f 29//7 30//7 31//7
f 31//8 30//8 32//8
o SketchUp.006_ID208
v 20.243896 2.936250 -10.730782
v 19.266773 2.936250 -11.751868
v 19.266773 2.936250 -10.730782
v 19.266773 2.936250 -12.772959
v 20.243896 2.936250 -12.772959
v 21.221020 2.936250 -10.730782
v 21.221020 2.936250 -12.772959
v 21.221020 2.936250 -11.751868
vn 0.0000 1.0000 0.0000
vn 0.0000 0.0000 1.0000
usemtl material
s off
f 33//9 34//9 35//9
f 34//9 33//9 36//9
f 36//9 33//9 37//9
f 37//9 33//9 38//9
f 37//9 38//9 39//9
f 39//10 38//10 40//10
o SketchUp.005_ID202
v 20.243896 3.915001 -12.772959
v 19.266773 3.915001 -11.751868
v 19.266773 3.915001 -12.772959
v 19.266773 3.915001 -10.730782
v 20.243896 3.915001 -10.730782
v 21.221020 3.915001 -12.772959
v 21.221020 3.915001 -10.730782
v 21.221020 3.915001 -11.751868
vn 0.0000 -1.0000 0.0000
vn 0.0000 0.0000 1.0000
usemtl material
s off
f 41//11 42//11 43//11
f 42//11 41//11 44//11
f 44//11 41//11 45//11
f 45//11 41//11 46//11
f 45//11 46//11 47//11
f 47//12 46//12 48//12
o SketchUp.004_ID196
v 20.243896 4.893749 -10.730782
v 19.266773 4.893749 -11.751868
v 19.266773 4.893749 -10.730782
v 19.266773 4.893749 -12.772959
v 20.243896 4.893749 -12.772959
v 21.221020 4.893749 -10.730782
v 21.221020 4.893749 -12.772959
v 21.221020 4.893749 -11.751868
vn 0.0000 1.0000 0.0000
vn 0.0000 0.0000 1.0000
usemtl material
s off
f 49//13 50//13 51//13
f 50//13 49//13 52//13
f 52//13 49//13 53//13
f 53//13 49//13 54//13
f 53//13 54//13 55//13
f 55//14 54//14 56//14
o SketchUp.003_ID183
v 21.221020 0.000000 -12.772959
v 21.221020 0.978750 -10.730782
v 21.221020 0.000000 -10.730782
v 21.221020 0.978750 -11.751868
v 21.221020 0.978750 -12.772959
v 21.221020 0.978750 -10.730782
v 20.243896 0.000000 -10.730782
v 21.221020 0.000000 -10.730782
v 20.243896 0.978750 -10.730782
v 20.243896 0.978750 -12.772959
v 21.221020 0.000000 -12.772959
v 20.243896 0.000000 -12.772959
v 21.221020 0.978750 -12.772959
v 19.266773 0.000000 -10.730782
v 19.266773 0.978750 -10.730782
v 19.266773 0.978750 -12.772959
v 19.266773 0.000000 -12.772959
v 19.266773 0.978750 -11.751868
v 19.266773 0.000000 -10.730782
v 19.266773 0.978750 -10.730782
v 19.266773 0.000000 -11.751868
v 19.266773 0.978750 -12.772959
v 19.266773 0.000000 -12.772959
vt 62.859051 0.000000
vt 52.808960 4.816683
vt 52.808960 0.000000
vt 57.834000 4.816683
vt 62.859051 4.816683
vt 104.434196 4.816683
vt 99.625481 0.000000
vt 104.434196 0.000000
vt 99.625481 4.816683
vt -99.625481 4.816683
vt -104.434196 0.000000
vt -99.625481 0.000000
vt -104.434196 4.816683
vt 94.816803 0.000000
vt 94.816803 4.816683
vt -94.816803 4.816683
vt -94.816803 0.000000
vt -57.834000 4.816683
vt -52.808960 0.000000
vt -52.808960 4.816683
vt -57.834000 0.000000
vt -62.859051 4.816683
vt -62.859051 0.000000
vn 1.0000 0.0000 0.0000
vn 0.0000 0.0000 1.0000
vn 0.0000 0.0000 -1.0000
vn -1.0000 0.0000 0.0000
usemtl Metal_Brass_Ceiling
s off
f 57/1/15 58/2/15 59/3/15
f 58/2/15 57/1/15 60/4/15
f 60/4/15 57/1/15 61/5/15
f 62/6/16 63/7/16 64/8/16
f 63/7/16 62/6/16 65/9/16
f 66/10/17 67/11/17 68/12/17
f 67/11/17 66/10/17 69/13/17
f 65/9/16 70/14/16 63/7/16
f 70/14/16 65/9/16 71/15/16
f 72/16/17 68/12/17 73/17/17
f 68/12/17 72/16/17 66/10/17
f 74/18/18 75/19/18 76/20/18
f 75/19/18 74/18/18 77/21/18
f 78/22/18 77/21/18 74/18/18
f 77/21/18 78/22/18 79/23/18
o SketchUp.002_ID170
v 21.221020 6.851252 -12.772959
v 21.221020 7.829999 -11.751868
v 21.221020 6.851252 -11.751868
v 21.221020 7.829999 -12.772959
v 21.221020 7.829999 -10.730782
v 21.221020 6.851252 -10.730782
v 21.221020 5.872500 -12.772959
v 21.221020 5.872500 -11.751868
v 20.243896 7.829999 -12.772959
v 21.221020 6.851252 -12.772959
v 20.243896 6.851252 -12.772959
v 21.221020 7.829999 -12.772959
v 21.221020 7.829999 -10.730782
v 20.243896 6.851252 -10.730782
v 21.221020 6.851252 -10.730782
v 20.243896 7.829999 -10.730782
v 21.221020 5.872500 -10.730782
v 21.221020 5.872500 -12.772959
v 20.243896 5.872500 -12.772959
v 21.221020 4.893749 -12.772959
v 21.221020 4.893749 -11.751868
v 19.266773 7.829999 -12.772959
v 19.266773 6.851252 -12.772959
v 19.266773 6.851252 -10.730782
v 19.266773 7.829999 -10.730782
v 20.243896 5.872500 -10.730782
v 21.221020 5.872500 -10.730782
v 21.221020 4.893749 -10.730782
v 19.266773 5.872500 -12.772959
v 21.221020 4.893749 -12.772959
v 20.243896 4.893749 -12.772959
v 21.221020 3.915001 -12.772959
v 21.221020 3.915001 -11.751868
v 19.266773 7.829999 -12.772959
v 19.266773 6.851252 -11.751868
v 19.266773 7.829999 -11.751868
v 19.266773 6.851252 -12.772959
v 19.266773 5.872500 -10.730782
v 19.266773 6.851252 -10.730782
v 19.266773 7.829999 -10.730782
v 20.243896 4.893749 -10.730782
v 21.221020 4.893749 -10.730782
v 21.221020 3.915001 -10.730782
v 19.266773 5.872500 -11.751868
v 19.266773 5.872500 -12.772959
v 19.266773 4.893749 -12.772959
v 21.221020 3.915001 -12.772959
v 20.243896 3.915001 -12.772959
v 21.221020 2.936250 -12.772959
v 21.221020 2.936250 -11.751868
v 19.266773 4.893749 -10.730782
v 19.266773 5.872500 -10.730782
v 21.221020 3.915001 -10.730782
v 20.243896 3.915001 -10.730782
v 21.221020 2.936250 -10.730782
v 19.266773 4.893749 -11.751868
v 19.266773 4.893749 -12.772959
v 19.266773 3.915001 -12.772959
v 21.221020 2.936250 -12.772959
v 20.243896 2.936250 -12.772959
v 21.221020 1.957500 -12.772959
v 21.221020 1.957500 -11.751868
v 19.266773 3.915001 -10.730782
v 19.266773 4.893749 -10.730782
v 21.221020 2.936250 -10.730782
v 20.243896 2.936250 -10.730782
v 21.221020 1.957500 -10.730782
v 19.266773 3.915001 -11.751868
v 19.266773 3.915001 -12.772959
v 19.266773 2.936250 -12.772959
v 21.221020 1.957500 -12.772959
v 20.243896 1.957500 -12.772959
v 21.221020 0.978750 -12.772959
v 21.221020 0.978750 -11.751868
v 19.266773 2.936250 -10.730782
v 19.266773 3.915001 -10.730782
v 21.221020 1.957500 -10.730782
v 20.243896 1.957500 -10.730782
v 21.221020 0.978750 -10.730782
v 19.266773 2.936250 -11.751868
v 19.266773 2.936250 -12.772959
v 19.266773 1.957500 -12.772959
v 21.221020 0.978750 -12.772959
v 20.243896 0.978750 -12.772959
v 19.266773 1.957500 -10.730782
v 19.266773 2.936250 -10.730782
v 21.221020 0.978750 -10.730782
v 20.243896 0.978750 -10.730782
v 19.266773 1.957500 -11.751868
v 19.266773 1.957500 -12.772959
v 19.266773 0.978750 -12.772959
v 19.266773 0.978750 -10.730782
v 19.266773 1.957500 -10.730782
v 19.266773 0.978750 -11.751868
v 19.266773 0.978750 -12.772959
v 19.266773 0.978750 -10.730782
vt 9.312452 4.995079
vt 8.568001 5.708661
vt 8.568001 4.995079
vt 9.312452 5.708661
vt 7.823549 5.708661
vt 7.823549 4.995079
vt 9.312452 4.281496
vt 8.568001 4.281496
vt -14.759330 5.708661
vt -15.471730 4.995079
vt -14.759330 4.995079
vt -15.471730 5.708661
vt 15.471730 5.708661
vt 14.759330 4.995079
vt 15.471730 4.995079
vt 14.759330 5.708661
vt 7.823549 4.281496
vt -15.471730 4.281496
vt -14.759330 4.281496
vt 9.312452 3.567913
vt 8.568001 3.567913
vt -14.046930 5.708661
vt -14.046930 4.995079
vt 14.046930 4.995079
vt 14.046930 5.708661
vt 14.759330 4.281496
vt 15.471730 4.281496
vt 7.823549 3.567913
vt -14.046930 4.281496
vt -15.471730 3.567913
vt -14.759330 3.567913
vt 9.312452 2.854331
vt 8.568001 2.854331
vt -9.312452 5.708661
vt -8.568001 4.995079
vt -8.568001 5.708661
vt -9.312452 4.995079
vt 14.046930 4.281496
vt -7.823549 4.995079
vt -7.823549 5.708661
vt 14.759330 3.567913
vt 15.471730 3.567913
vt 7.823549 2.854331
vt -8.568001 4.281496
vt -9.312452 4.281496
vt -14.046930 3.567913
vt -15.471730 2.854331
vt -14.759330 2.854331
vt 9.312452 2.140748
vt 8.568001 2.140748
vt 14.046930 3.567913
vt -7.823549 4.281496
vt 15.471730 2.854331
vt 14.759330 2.854331
vt 7.823549 2.140748
vt -8.568001 3.567913
vt -9.312452 3.567913
vt -14.046930 2.854331
vt -15.471730 2.140748
vt -14.759330 2.140748
vt 9.312452 1.427165
vt 8.568001 1.427165
vt 14.046930 2.854331
vt -7.823549 3.567913
vt 15.471730 2.140748
vt 14.759330 2.140748
vt 7.823549 1.427165
vt -8.568001 2.854331
vt -9.312452 2.854331
vt -14.046930 2.140748
vt -15.471730 1.427165
vt -14.759330 1.427165
vt 9.312452 0.713583
vt 8.568001 0.713583
vt 14.046930 2.140748
vt -7.823549 2.854331
vt 15.471730 1.427165
vt 14.759330 1.427165
vt 7.823549 0.713583
vt -8.568001 2.140748
vt -9.312452 2.140748
vt -14.046930 1.427165
vt -15.471730 0.713583
vt -14.759330 0.713583
vt 14.046930 1.427165
vt -7.823549 2.140748
vt 15.471730 0.713583
vt 14.759330 0.713583
vt -8.568001 1.427165
vt -9.312452 1.427165
vt -14.046930 0.713583
vt 14.046930 0.713583
vt -7.823549 1.427165
vt -8.568001 0.713583
vt -9.312452 0.713583
vt -7.823549 0.713583
vn 1.0000 0.0000 0.0000
vn 0.0000 0.0000 -1.0000
vn 0.0000 0.0000 1.0000
vn -1.0000 0.0000 0.0000
usemtl Metal_Aluminum_Anodized
s off
f 80/24/19 81/25/19 82/26/19
f 81/25/19 80/24/19 83/27/19
f 82/26/19 84/28/19 85/29/19
f 84/28/19 82/26/19 81/25/19
f 86/30/19 82/26/19 87/31/19
f 82/26/19 86/30/19 80/24/19
f 88/32/20 89/33/20 90/34/20
f 89/33/20 88/32/20 91/35/20
f 92/36/21 93/37/21 94/38/21
f 93/37/21 92/36/21 95/39/21
f 87/31/19 85/29/19 96/40/19
f 85/29/19 87/31/19 82/26/19
f 90/34/20 97/41/20 98/42/20
f 97/41/20 90/34/20 89/33/20
f 99/43/19 87/31/19 100/44/19
f 87/31/19 99/43/19 86/30/19
f 101/45/20 90/34/20 102/46/20
f 90/34/20 101/45/20 88/32/20
f 95/39/21 103/47/21 93/37/21
f 103/47/21 95/39/21 104/48/21
f 94/38/21 105/49/21 106/50/21
f 105/49/21 94/38/21 93/37/21
f 100/44/19 96/40/19 107/51/19
f 96/40/19 100/44/19 87/31/19
f 102/46/20 98/42/20 108/52/20
f 98/42/20 102/46/20 90/34/20
f 98/42/20 109/53/20 110/54/20
f 109/53/20 98/42/20 97/41/20
f 111/55/19 100/44/19 112/56/19
f 100/44/19 111/55/19 99/43/19
f 113/57/22 114/58/22 115/59/22
f 114/58/22 113/57/22 116/60/22
f 93/37/21 117/61/21 105/49/21
f 117/61/21 93/37/21 103/47/21
f 115/59/22 118/62/22 119/63/22
f 118/62/22 115/59/22 114/58/22
f 106/50/21 120/64/21 121/65/21
f 120/64/21 106/50/21 105/49/21
f 112/56/19 107/51/19 122/66/19
f 107/51/19 112/56/19 100/44/19
f 116/60/22 123/67/22 114/58/22
f 123/67/22 116/60/22 124/68/22
f 108/52/20 110/54/20 125/69/20
f 110/54/20 108/52/20 98/42/20
f 110/54/20 126/70/20 127/71/20
f 126/70/20 110/54/20 109/53/20
f 128/72/19 112/56/19 129/73/19
f 112/56/19 128/72/19 111/55/19
f 105/49/21 130/74/21 120/64/21
f 130/74/21 105/49/21 117/61/21
f 114/58/22 131/75/22 118/62/22
f 131/75/22 114/58/22 123/67/22
f 132/76/21 120/64/21 133/77/21
f 120/64/21 132/76/21 121/65/21
f 129/73/19 122/66/19 134/78/19
f 122/66/19 129/73/19 112/56/19
f 124/68/22 135/79/22 123/67/22
f 135/79/22 124/68/22 136/80/22
f 137/81/20 110/54/20 127/71/20
f 110/54/20 137/81/20 125/69/20
f 127/71/20 138/82/20 139/83/20
f 138/82/20 127/71/20 126/70/20
f 140/84/19 129/73/19 141/85/19
f 129/73/19 140/84/19 128/72/19
f 120/64/21 142/86/21 133/77/21
f 142/86/21 120/64/21 130/74/21
f 123/67/22 143/87/22 131/75/22
f 143/87/22 123/67/22 135/79/22
f 144/88/21 133/77/21 145/89/21
f 133/77/21 144/88/21 132/76/21
f 141/85/19 134/78/19 146/90/19
f 134/78/19 141/85/19 129/73/19
f 136/80/22 147/91/22 135/79/22
f 147/91/22 136/80/22 148/92/22
f 137/81/20 139/83/20 149/93/20
f 139/83/20 137/81/20 127/71/20
f 139/83/20 150/94/20 151/95/20
f 150/94/20 139/83/20 138/82/20
f 152/96/19 141/85/19 153/97/19
f 141/85/19 152/96/19 140/84/19
f 133/77/21 154/98/21 145/89/21
f 154/98/21 133/77/21 142/86/21
f 135/79/22 155/99/22 143/87/22
f 155/99/22 135/79/22 147/91/22
f 156/100/21 145/89/21 157/101/21
f 145/89/21 156/100/21 144/88/21
f 153/97/19 146/90/19 158/102/19
f 146/90/19 153/97/19 141/85/19
f 148/92/22 159/103/22 147/91/22
f 159/103/22 148/92/22 160/104/22
f 149/93/20 151/95/20 161/105/20
f 151/95/20 149/93/20 139/83/20
f 151/95/20 162/106/20 163/107/20
f 162/106/20 151/95/20 150/94/20
f 145/89/21 164/108/21 157/101/21
f 164/108/21 145/89/21 154/98/21
f 147/91/22 165/109/22 155/99/22
f 165/109/22 147/91/22 159/103/22
f 166/110/21 157/101/21 167/111/21
f 157/101/21 166/110/21 156/100/21
f 160/104/22 168/112/22 159/103/22
f 168/112/22 160/104/22 169/113/22
f 170/114/20 151/95/20 163/107/20
f 151/95/20 170/114/20 161/105/20
f 157/101/21 171/115/21 167/111/21
f 171/115/21 157/101/21 164/108/21
f 159/103/22 172/116/22 165/109/22
f 172/116/22 159/103/22 168/112/22
f 169/113/22 173/117/22 168/112/22
f 173/117/22 169/113/22 174/118/22
f 168/112/22 175/119/22 172/116/22
f 175/119/22 168/112/22 173/117/22
o SketchUp.001_ID157
v 20.243896 7.829999 -10.730782
v 19.266773 7.829999 -11.751868
v 19.266773 7.829999 -10.730782
v 19.266773 7.829999 -12.772959
v 20.243896 7.829999 -12.772959
v 21.221020 7.829999 -10.730782
v 21.221020 7.829999 -12.772959
v 21.221020 7.829999 -11.751868
vt 33.208488 17.602989
vt 31.605600 19.278000
vt 31.605600 17.602989
vt 31.605600 20.953020
vt 33.208488 20.953020
vt 34.811378 17.602989
vt 34.811378 20.953020
vt 34.811378 19.278000
vn 0.0000 1.0000 0.0000
vn 0.0000 0.0000 1.0000
usemtl Metal_Steel_Textured
s off
f 176/120/23 177/121/23 178/122/23
f 177/121/23 176/120/23 179/123/23
f 179/123/23 176/120/23 180/124/23
f 180/124/23 176/120/23 181/125/23
f 180/124/23 181/125/23 182/126/23
f 182/126/24 181/125/24 183/127/24
o SketchUp_ID149
v 20.243896 0.000000 -12.772959
v 19.266773 0.000000 -11.751868
v 19.266773 0.000000 -12.772959
v 19.266773 0.000000 -10.730782
v 20.243896 0.000000 -10.730782
v 21.221020 0.000000 -12.772959
v 21.221020 0.000000 -10.730782
vn 0.0000 -1.0000 0.0000
usemtl material
s off
f 184//25 185//25 186//25
f 185//25 184//25 187//25
f 187//25 184//25 188//25
f 188//25 184//25 189//25
f 188//25 189//25 190//25
o instance_0.024_ID145
v 0.497758 0.843815 -0.302615
v 0.498376 0.845898 -0.304150
l 192 191
o instance_0.023_ID141
v 0.580236 1.545882 -0.507401
v 0.580950 1.546376 -0.509172
l 194 193
o instance_0.022_ID137
v 0.484814 1.128989 -0.270477
v 0.481908 1.155231 -0.263261
l 196 195
o instance_0.021_ID133
v 0.583873 1.569283 -0.516430
v 0.583223 1.569411 -0.514817
l 198 197
o instance_0.020_ID129
v 0.533943 1.590225 -0.392459
v 0.532807 1.596443 -0.389639
v 0.536659 1.584270 -0.399203
v 0.539326 1.581492 -0.405825
l 200 199
l 199 201
l 201 202
