# Blender v2.79 (sub 0) OBJ File: ''
# www.blender.org
mtllib road05.mtl
o Plane.001
v -0.599586 0.000000 1.127289
v -0.026901 0.000000 1.127289
v -0.009500 0.000000 0.928398
v -0.573484 0.000000 0.828952
v 0.545784 0.000000 1.127289
v 0.554485 0.000000 1.027844
v 0.580322 0.000000 0.931420
v 0.042174 0.000000 0.735550
v -0.495974 0.000000 0.539680
v 0.622510 0.000000 0.840947
v 0.126550 0.000000 0.554605
v -0.369410 0.000000 0.268262
v 0.679767 0.000000 0.759175
v 0.241066 0.000000 0.391060
v -0.197637 0.000000 0.022945
v 0.750355 0.000000 0.688588
v 0.382240 0.000000 0.249885
v 0.014125 0.000000 -0.188817
v 0.545784 0.000000 0.135370
v 0.259442 0.000000 -0.360589
v 0.832127 0.000000 0.631330
v 0.922599 0.000000 0.589142
v 0.726730 0.000000 0.050994
v 0.530860 0.000000 -0.487153
v 1.019024 0.000000 0.563305
v 0.919578 0.000000 -0.000679
v 0.820132 0.000000 -0.564664
v 1.118469 0.000000 0.554605
v 1.118469 0.000000 -0.018080
v 1.118469 0.000000 -0.590765
v 1.118469 0.033640 1.127289
v 1.118469 0.000000 1.127289
v 1.118469 0.000000 1.127289
v 1.118469 0.033640 1.127289
v -1.172270 0.000000 1.127289
v -1.172270 0.033640 1.127289
v -1.137469 0.033640 0.729507
v -1.137469 0.000000 0.729507
v 1.118469 0.000000 1.127289
v 1.118469 0.033640 1.127289
v -1.034122 0.033640 0.343810
v -1.034122 0.000000 0.343810
v 1.118469 0.000000 1.127289
v 1.118469 0.033640 1.127289
v -0.865369 0.033640 -0.018080
v -0.865369 0.000000 -0.018080
v -0.636339 0.033640 -0.345169
v -0.636339 0.000000 -0.345169
v 1.118469 0.000000 1.127289
v 1.118469 0.033640 1.127289
v 1.118469 0.000000 1.127289
v 1.118469 0.033640 1.127289
v -0.353990 0.033640 -0.627518
v -0.353990 0.000000 -0.627518
v 1.118469 0.000000 1.127289
v 1.118469 0.033640 1.127289
v -0.026900 0.033640 -0.856549
v -0.026900 0.000000 -0.856549
v 1.118469 0.000000 1.127289
v 1.118469 0.033640 1.127289
v 0.334991 0.033640 -1.025301
v 0.334991 0.000000 -1.025301
v 1.118469 0.000000 1.127289
v 1.118469 0.033640 1.127289
v 0.720687 0.033640 -1.128648
v 0.720687 0.000000 -1.128648
v 1.118469 0.000000 1.127289
v 1.118469 0.033640 1.127289
v 1.118470 0.033640 -1.163449
v 1.118470 0.000000 -1.163449
v 0.545784 0.030978 1.127289
v 0.550217 0.033640 1.127289
v 0.558850 0.033640 1.028613
v 0.554485 0.030978 1.027844
v -0.604018 0.033640 1.127289
v -0.599586 0.030978 1.127289
v -0.573484 0.030978 0.828952
v -0.577849 0.033640 0.828183
v 0.584486 0.033640 0.932936
v 0.580322 0.030978 0.931420
v -0.495974 0.030978 0.539680
v -0.500139 0.033640 0.538164
v 0.626348 0.033640 0.843163
v 0.622510 0.030978 0.840947
v -0.369410 0.030978 0.268262
v -0.373248 0.033640 0.266046
v 0.683162 0.033640 0.762024
v 0.679767 0.030978 0.759175
v -0.197637 0.030978 0.022945
v -0.201032 0.033640 0.020096
v 0.753203 0.033640 0.691983
v 0.750355 0.030978 0.688588
v 0.014125 0.030978 -0.188817
v 0.011276 0.033640 -0.192212
v 0.834343 0.033640 0.635169
v 0.832127 0.030978 0.631330
v 0.259442 0.030978 -0.360589
v 0.257226 0.033640 -0.364428
v 0.924115 0.033640 0.593307
v 0.922599 0.030978 0.589142
v 0.530860 0.030978 -0.487153
v 0.529344 0.033640 -0.491318
v 0.820132 0.030978 -0.564664
v 0.819363 0.033640 -0.569029
v 1.019793 0.033640 0.567670
v 1.019024 0.030978 0.563305
v 1.118469 0.033640 0.559037
v 1.118469 0.030978 0.554605
v 1.118469 0.030978 -0.590765
v 1.118469 0.033640 -0.595197
v 0.581530 0.033640 1.127289
v 0.589687 0.033640 1.034051
v -0.635331 0.033640 1.127289
v -0.608686 0.033640 0.822745
v 0.613911 0.033640 0.943645
v -0.529564 0.033640 0.527454
v 0.653466 0.033640 0.858820
v -0.400366 0.033640 0.250389
v 0.707150 0.033640 0.782151
v -0.225019 0.033640 -0.000032
v -0.008852 0.033640 -0.216199
v 0.773331 0.033640 0.715970
v 0.850000 0.033640 0.662286
v 0.241569 0.033640 -0.391546
v 0.934825 0.033640 0.622732
v 0.518634 0.033640 -0.520744
v 1.025231 0.033640 0.598508
v 0.813925 0.033640 -0.599866
v 1.118470 0.033640 -0.626510
v 1.118469 0.033640 0.590350
vt 0.988182 1.587276
vt 0.395090 1.587276
vt 0.395090 1.363751
vt 0.988182 1.363751
vt 0.396429 -0.656861
vt 0.988284 -0.656861
vt 0.988284 -0.412518
vt 0.396429 -0.412518
vt 0.988284 -0.147522
vt 0.396429 -0.147522
vt 0.395090 1.121876
vt 0.988182 1.121876
vt 0.988284 0.151250
vt 0.396429 0.151250
vt 0.395090 0.862837
vt 0.988182 0.862837
vt 0.988284 0.448590
vt 0.396429 0.448590
vt 0.395090 0.607012
vt 0.988182 0.607012
vt 0.988284 0.729329
vt 0.396429 0.729329
vt 0.395090 0.338983
vt 0.988182 0.338984
vt 0.395090 0.066895
vt 0.988182 0.066896
vt 0.988284 1.003068
vt 0.396429 1.003068
vt 0.988284 1.230432
vt 0.396429 1.230432
vt 0.395090 -0.177794
vt 0.988182 -0.177794
vt 0.988284 1.446422
vt 0.396429 1.446422
vt 0.395090 -0.400159
vt 0.988182 -0.400159
vt 0.988284 1.656861
vt 0.396429 1.656861
vt 0.395090 -0.587276
vt 0.988182 -0.587276
vt 0.000000 0.000000
vt 0.000000 0.000000
vt 0.000000 0.000000
vt 0.000000 0.000000
vt 0.000000 0.000000
vt 0.000000 0.000000
vt 0.000000 0.000000
vt 0.000000 0.000000
vt 0.000000 0.000000
vt 0.000000 0.000000
vt 0.000000 0.000000
vt 0.000000 0.000000
vt 0.000000 0.000000
vt 0.000000 0.000000
vt 0.000000 0.000000
vt 0.000000 0.000000
vt 0.000000 0.000000
vt 0.000000 0.000000
vt 0.000000 0.000000
vt 0.000000 0.000000
vt 0.000000 0.000000
vt 0.000000 0.000000
vt 0.000000 0.000000
vt 0.000000 0.000000
vt 0.000000 0.000000
vt 0.000000 0.000000
vt 0.000000 0.000000
vt 0.000000 0.000000
vt 0.000000 0.000000
vt 0.000000 0.000000
vt 0.000000 0.000000
vt 0.000000 0.000000
vt 0.000000 0.000000
vt 0.000000 0.000000
vt 0.000000 0.000000
vt 0.000000 0.000000
vt 0.000000 0.000000
vt 0.000000 0.000000
vt 0.000000 0.000000
vt 0.000000 0.000000
vt -0.296735 1.016408
vt -0.296735 -0.006490
vt -0.091733 -0.006490
vt -0.091733 1.016408
vt -2.570083 1.000112
vt -2.570083 0.000203
vt -1.760404 0.000203
vt -1.760404 1.000112
vt 0.107040 -0.006490
vt 0.107040 1.016408
vt -1.038774 0.000203
vt -1.038774 1.000112
vt 0.293547 -0.006490
vt 0.293547 1.016408
vt -0.371042 0.000203
vt -0.371042 1.000112
vt 0.472881 -0.006490
vt 0.472881 1.016408
vt 0.278570 0.000203
vt 0.278570 1.000112
vt 0.653399 -0.006490
vt 0.653399 1.016408
vt 0.978561 0.000203
vt 0.978551 1.000112
vt 0.830667 -0.006490
vt 0.830667 1.016408
vt 1.648831 0.000203
vt 1.648831 1.000112
vt 0.993025 -0.006490
vt 0.993025 1.016408
vt 2.258476 0.000203
vt 2.258476 1.000112
vt 2.871668 0.000203
vt 2.871668 1.000112
vt 1.140522 -0.006490
vt 1.140522 1.016408
vt 1.306549 -0.006490
vt 1.306549 1.016408
vt 3.579968 0.000203
vt 3.579968 1.000112
vt -0.890955 1.014177
vt -0.890955 -0.050710
vt -0.592558 -0.050710
vt -0.592558 1.014177
vt -0.999236 0.006212
vt -0.999236 1.004136
vt -0.742054 1.004136
vt -0.742054 0.006212
vt 4.967065 1.073640
vt 4.967065 -0.071441
vt 3.971413 -0.071441
vt 3.971413 1.073640
vt -1.900671 0.986051
vt -1.900671 0.000932
vt -1.395620 0.000932
vt -1.395620 0.986051
vt -0.813590 0.000932
vt -0.813585 0.986051
vt -0.301586 -0.050710
vt -0.301586 1.014177
vt 3.018406 -0.071441
vt 3.018406 1.073640
vt -0.502224 1.004134
vt -0.502224 0.006212
vt 0.028825 -0.050710
vt 0.028824 1.014177
vt 1.963346 -0.071441
vt 1.963346 1.073640
vt -0.250267 1.004134
vt -0.250267 0.006211
vt -0.236026 0.000932
vt -0.236026 0.986051
vt 0.344617 -0.050710
vt 0.344617 1.014177
vt 0.818231 -0.071441
vt 0.818230 1.073640
vt -0.008391 1.004134
vt -0.008391 0.006211
vt 0.427690 0.000932
vt 0.427690 0.986051
vt -0.291977 -0.071441
vt -0.291977 1.073639
vt 0.248352 1.004134
vt 0.248352 0.006211
vt 1.077106 0.000932
vt 1.077106 0.986051
vt 0.727534 -0.050710
vt 0.727534 1.014177
vt 1.694229 0.000932
vt 1.694229 0.986051
vt 1.054048 -0.050710
vt 1.054048 1.014177
vt -1.258559 -0.071441
vt -1.258559 1.073639
vt 0.502795 1.004132
vt 0.502795 0.006211
vt 1.343538 -0.050710
vt 1.343538 1.014177
vt -2.105603 -0.071441
vt -2.105603 1.073639
vt 0.755452 1.004132
vt 0.755452 0.006211
vt 2.298558 0.000932
vt 2.298558 0.986051
vt 1.626641 -0.050710
vt 1.626639 1.014177
vt -2.914759 -0.071441
vt -2.914760 1.073639
vt 1.024727 1.004132
vt 1.024727 0.006211
vt 2.845220 0.000932
vt 2.845224 0.986051
vt -3.964491 -0.071441
vt -3.964491 1.073639
vt 1.283812 1.004132
vt 1.283812 0.006211
vt 3.361750 0.000932
vt 3.361750 0.986051
vt 1.892980 -0.050710
vt 1.892980 1.014177
vt -0.200831 -0.190760
vt 1.165117 -0.190760
vt 1.165117 -0.190760
vt -0.180079 0.053015
vt -2.373980 -1.198924
vt -0.982775 -1.198924
vt -0.913740 -0.409852
vt -2.283810 -0.168272
vt 1.165117 -0.190760
vt -0.118454 0.289383
vt -0.708733 0.355244
vt -2.016039 0.831064
vt -0.373983 1.073118
vt -1.578802 1.768721
vt 1.165117 -0.190760
vt -0.017829 0.511161
vt 1.165117 -0.190760
vt 0.118740 0.711612
vt 0.080338 1.721957
vt -0.985386 2.616207
vt 1.165117 -0.190760
vt 0.287103 0.884645
vt 0.640428 2.282046
vt -0.253821 3.347771
vt 1.165117 -0.190760
vt 0.482143 1.025003
vt 1.289267 2.736368
vt 0.593664 3.941186
vt 2.007140 3.071118
vt 1.531320 4.378422
vt 1.165117 -0.190760
vt 0.697935 1.128420
vt 1.165117 -0.190760
vt 0.927922 1.191754
vt 2.772237 3.276125
vt 2.530656 4.646194
vt 1.165117 -0.190760
vt 1.165117 1.213081
vt 3.561308 3.345159
vt 3.561308 4.736363
vn 0.0000 1.0000 0.0000
vn 0.0000 0.0000 1.0000
vn -0.9962 0.0000 -0.0872
vn -0.9659 0.0000 -0.2588
vn -0.9063 0.0000 -0.4226
vn -0.8192 0.0000 -0.5736
vn -0.7071 0.0000 -0.7071
vn -0.5736 0.0000 -0.8192
vn -0.4226 0.0000 -0.9063
vn -0.2588 0.0000 -0.9659
vn -0.0872 0.0000 -0.9962
vn -0.5143 0.8564 -0.0450
vn 0.5143 0.8564 0.0450
vn -0.4987 0.8564 -0.1336
vn 0.4986 0.8565 0.1336
vn -0.4679 0.8564 -0.2182
vn 0.4679 0.8564 0.2182
vn -0.4229 0.8564 -0.2961
vn 0.4229 0.8564 0.2961
vn -0.3650 0.8564 -0.3650
vn 0.3650 0.8564 0.3650
vn -0.2961 0.8564 -0.4229
vn 0.2961 0.8564 0.4229
vn -0.2182 0.8564 -0.4679
vn 0.2182 0.8564 0.4679
vn 0.1336 0.8564 0.4987
vn -0.1336 0.8564 -0.4987
vn -0.0450 0.8564 -0.5143
vn 0.0450 0.8564 0.5143
vn 0.9962 0.0000 0.0872
vn 0.9659 0.0000 0.2588
vn 0.9063 0.0000 0.4226
vn 0.8192 0.0000 0.5736
vn 0.7071 0.0000 0.7071
vn 0.5736 0.0000 0.8192
vn 0.4226 0.0000 0.9063
vn 0.2588 0.0000 0.9659
vn 0.0872 0.0000 0.9962
usemtl None_Roads0069_9_S.jpg
s off
f 1/1/1 2/2/1 3/3/1 4/4/1
f 2/5/1 5/6/1 6/7/1 3/8/1
f 3/8/1 6/7/1 7/9/1 8/10/1
f 4/4/1 3/3/1 8/11/1 9/12/1
f 8/10/1 7/9/1 10/13/1 11/14/1
f 9/12/1 8/11/1 11/15/1 12/16/1
f 11/14/1 10/13/1 13/17/1 14/18/1
f 12/16/1 11/15/1 14/19/1 15/20/1
f 14/18/1 13/17/1 16/21/1 17/22/1
f 15/20/1 14/19/1 17/23/1 18/24/1
f 18/24/1 17/23/1 19/25/1 20/26/1
f 17/22/1 16/21/1 21/27/1 19/28/1
f 19/28/1 21/27/1 22/29/1 23/30/1
f 20/26/1 19/25/1 23/31/1 24/32/1
f 23/30/1 22/29/1 25/33/1 26/34/1
f 24/32/1 23/31/1 26/35/1 27/36/1
f 26/34/1 25/33/1 28/37/1 29/38/1
f 27/36/1 26/35/1 29/39/1 30/40/1
usemtl None_NONE
f 31/41/2 32/42/2 33/43/2 34/44/2
f 35/45/3 36/46/3 37/47/3 38/48/3
f 34/44/2 33/43/2 39/49/2 40/50/2
f 38/48/4 37/47/4 41/51/4 42/52/4
f 40/50/2 39/49/2 43/53/2 44/54/2
f 42/52/5 41/51/5 45/55/5 46/56/5
f 46/56/6 45/55/6 47/57/6 48/58/6
f 44/54/2 43/53/2 49/59/2 50/60/2
f 50/60/2 49/59/2 51/61/2 52/62/2
f 48/58/7 47/57/7 53/63/7 54/64/7
f 52/62/2 51/61/2 55/65/2 56/66/2
f 54/64/8 53/63/8 57/67/8 58/68/8
f 56/66/2 55/65/2 59/69/2 60/70/2
f 58/68/9 57/67/9 61/71/9 62/72/9
f 60/70/2 59/69/2 63/73/2 64/74/2
f 62/72/10 61/71/10 65/75/10 66/76/10
f 64/74/2 63/73/2 67/77/2 68/78/2
f 66/76/11 65/75/11 69/79/11 70/80/11
usemtl None_CordonMedium.jpg.001
f 71/81/12 72/82/12 73/83/12 74/84/12
f 75/85/13 76/86/13 77/87/13 78/88/13
f 74/84/14 73/83/14 79/89/14 80/90/14
f 78/88/15 77/87/15 81/91/15 82/92/15
f 80/90/16 79/89/16 83/93/16 84/94/16
f 82/92/17 81/91/17 85/95/17 86/96/17
f 84/94/18 83/93/18 87/97/18 88/98/18
f 86/96/19 85/95/19 89/99/19 90/100/19
f 88/98/20 87/97/20 91/101/20 92/102/20
f 90/100/21 89/99/21 93/103/21 94/104/21
f 92/102/22 91/101/22 95/105/22 96/106/22
f 94/104/23 93/103/23 97/107/23 98/108/23
f 96/106/24 95/105/24 99/109/24 100/110/24
f 98/108/25 97/107/25 101/111/25 102/112/25
f 102/112/26 101/111/26 103/113/26 104/114/26
f 100/110/27 99/109/27 105/115/27 106/116/27
f 106/116/28 105/115/28 107/117/28 108/118/28
f 104/114/29 103/113/29 109/119/29 110/120/29
usemtl None_CordonTop.jpg.001
f 72/121/1 111/122/1 112/123/1 73/124/1
f 5/125/3 71/126/3 74/127/3 6/128/3
f 113/129/1 75/130/1 78/131/1 114/132/1
f 76/133/30 1/134/30 4/135/30 77/136/30
f 77/136/31 4/135/31 9/137/31 81/138/31
f 73/124/1 112/123/1 115/139/1 79/140/1
f 114/132/1 78/131/1 82/141/1 116/142/1
f 6/128/4 74/127/4 80/143/4 7/144/4
f 79/140/1 115/139/1 117/145/1 83/146/1
f 116/142/1 82/141/1 86/147/1 118/148/1
f 7/144/5 80/143/5 84/149/5 10/150/5
f 81/138/32 9/137/32 12/151/32 85/152/32
f 83/146/1 117/145/1 119/153/1 87/154/1
f 118/148/1 86/147/1 90/155/1 120/156/1
f 10/150/6 84/149/6 88/157/6 13/158/6
f 85/152/33 12/151/33 15/159/33 89/160/33
f 120/156/1 90/155/1 94/161/1 121/162/1
f 13/158/7 88/157/7 92/163/7 16/164/7
f 89/160/34 15/159/34 18/165/34 93/166/34
f 87/154/1 119/153/1 122/167/1 91/168/1
f 93/166/35 18/165/35 20/169/35 97/170/35
f 91/168/1 122/167/1 123/171/1 95/172/1
f 121/162/1 94/161/1 98/173/1 124/174/1
f 16/164/8 92/163/8 96/175/8 21/176/8
f 95/172/1 123/171/1 125/177/1 99/178/1
f 124/174/1 98/173/1 102/179/1 126/180/1
f 21/176/9 96/175/9 100/181/9 22/182/9
f 97/170/36 20/169/36 24/183/36 101/184/36
f 99/178/1 125/177/1 127/185/1 105/186/1
f 126/180/1 102/179/1 104/187/1 128/188/1
f 22/182/10 100/181/10 106/189/10 25/190/10
f 101/184/37 24/183/37 27/191/37 103/192/37
f 128/188/1 104/187/1 110/193/1 129/194/1
f 25/190/11 106/189/11 108/195/11 28/196/11
f 103/192/38 27/191/38 30/197/38 109/198/38
f 105/186/1 127/185/1 130/199/1 107/200/1
usemtl None_FloorsRegular0277_1_S.jpg.001
f 111/201/1 31/202/1 34/203/1 112/204/1
f 36/205/1 113/206/1 114/207/1 37/208/1
f 112/204/1 34/203/1 40/209/1 115/210/1
f 37/208/1 114/207/1 116/211/1 41/212/1
f 41/212/1 116/211/1 118/213/1 45/214/1
f 115/210/1 40/209/1 44/215/1 117/216/1
f 117/216/1 44/215/1 50/217/1 119/218/1
f 45/214/1 118/213/1 120/219/1 47/220/1
f 119/218/1 50/217/1 52/221/1 122/222/1
f 47/220/1 120/219/1 121/223/1 53/224/1
f 122/222/1 52/221/1 56/225/1 123/226/1
f 53/224/1 121/223/1 124/227/1 57/228/1
f 57/228/1 124/227/1 126/229/1 61/230/1
f 123/226/1 56/225/1 60/231/1 125/232/1
f 125/232/1 60/231/1 64/233/1 127/234/1
f 61/230/1 126/229/1 128/235/1 65/236/1
f 127/234/1 64/233/1 68/237/1 130/238/1
f 65/236/1 128/235/1 129/239/1 69/240/1
