# Blender v2.79 (sub 0) OBJ File: ''
# www.blender.org
mtllib road04.mtl
o Plane.017
v -0.020217 0.000000 1.166992
v 0.552467 0.000000 1.166992
v 0.552467 0.000000 -1.123747
v -0.020217 0.000000 -1.123747
v -0.592902 0.000000 -1.123747
v -0.592902 0.000000 1.166992
v 1.125153 0.000000 1.166992
v 1.125153 0.000000 -1.123747
v 1.125153 0.033640 -1.123747
v 1.125153 0.033640 1.166992
v -1.165587 0.000000 1.166992
v -1.165587 0.033640 1.166992
v -1.165587 0.033640 -1.123747
v -1.165587 0.000000 -1.123747
v 0.556900 0.033640 1.166992
v 0.556900 0.033640 -1.123747
v 0.552467 0.030978 -1.123747
v 0.552467 0.030978 1.166992
v -0.597335 0.033640 1.166992
v -0.592902 0.030978 1.166992
v -0.592902 0.030978 -1.123747
v -0.597335 0.033640 -1.123747
v 0.588213 0.033640 1.166992
v 0.588213 0.033640 -1.123747
v -0.628647 0.033640 -1.123747
v -0.628647 0.033640 1.166992
vt 0.411726 -0.943080
vt 0.991281 -0.943080
vt 0.991281 1.000000
vt 0.411726 1.000000
vt 0.991281 1.000000
vt 0.991281 -0.943080
vt 0.000000 0.000000
vt 0.000000 0.000000
vt 0.000000 0.000000
vt 0.000000 0.000000
vt 0.000000 0.000000
vt 0.000000 0.000000
vt 0.000000 0.000000
vt 0.000000 0.000000
vt -1.868691 -0.020601
vt 4.110485 -0.020601
vt 4.110485 1.004788
vt -1.868691 1.004788
vt -1.868691 -0.020601
vt -1.868691 1.004788
vt 4.110485 1.004788
vt 4.110485 -0.020601
vt 7.287572 0.000000
vt 0.000000 0.000000
vt 0.000000 1.000000
vt 7.287572 1.000000
vt 0.037058 1.065179
vt 0.037058 0.000407
vt 7.287621 0.000407
vt 7.287621 1.065179
vt 7.287572 0.000000
vt 7.287572 1.000000
vt 0.000000 1.000000
vt 0.000000 0.000000
vt 0.037058 1.065179
vt 7.287621 1.065179
vt 7.287621 0.000407
vt 0.037058 0.000407
vt 0.000000 -3.602234
vt 1.365877 -3.602234
vt 1.365877 3.212264
vt 0.000000 3.212264
vt 0.000000 -3.602234
vt 0.000000 3.212264
vt 1.365877 3.212264
vt 1.365877 -3.602234
vn 0.0000 1.0000 0.0000
vn 1.0000 0.0000 0.0000
vn -1.0000 0.0000 0.0000
vn -0.5148 0.8573 0.0000
vn 0.5148 0.8573 0.0000
usemtl None_Roads0069_9_S.jpg
s off
f 1/1/1 2/2/1 3/3/1 4/4/1
f 1/1/1 4/4/1 5/5/1 6/6/1
usemtl None_NONE
f 7/7/2 8/8/2 9/9/2 10/10/2
f 11/11/3 12/12/3 13/13/3 14/14/3
usemtl None_CordonMedium.jpg.001
f 15/15/4 16/16/4 17/17/4 18/18/4
f 19/19/5 20/20/5 21/21/5 22/22/5
usemtl None_CordonTop.jpg.001
f 3/23/3 2/24/3 18/25/3 17/26/3
f 15/27/1 23/28/1 24/29/1 16/30/1
f 5/31/2 21/32/2 20/33/2 6/34/2
f 19/35/1 22/36/1 25/37/1 26/38/1
usemtl None_FloorsRegular0277_1_S.jpg.001
f 23/39/1 10/40/1 9/41/1 24/42/1
f 26/43/1 25/44/1 13/45/1 12/46/1
