# Blender v2.79 (sub 0) OBJ File: ''
# www.blender.org
mtllib road03.mtl
o Plane.008_Plane.019
v -0.035272 0.000000 -0.009435
v 0.537413 0.000000 -0.009435
v 0.537413 0.000000 -2.300173
v -0.035272 0.000000 -2.300173
v -0.017873 0.000000 0.189482
v 0.546112 0.000000 0.090036
v 0.033804 0.000000 0.382355
v 0.571951 0.000000 0.186485
v 0.118187 0.000000 0.563324
v 0.614146 0.000000 0.276981
v 0.232713 0.000000 0.726891
v 0.671415 0.000000 0.358776
v 0.373902 0.000000 0.868085
v 0.742017 0.000000 0.429383
v 0.537465 0.000000 0.982618
v 0.823807 0.000000 0.486658
v 0.718431 0.000000 1.067008
v 0.914301 0.000000 0.528860
v 0.911302 0.000000 1.118691
v 1.010747 0.000000 0.554707
v 1.110218 0.000000 1.136097
v 1.110218 0.000000 0.563413
v -0.607956 0.000000 -2.300173
v -0.607956 0.000000 -0.009435
v -0.616655 0.000000 0.090036
v -0.052670 0.000000 0.189482
v -0.642495 0.000000 0.186485
v -0.104347 0.000000 0.382355
v -0.684690 0.000000 0.276981
v -0.188730 0.000000 0.563324
v -0.741958 0.000000 0.358776
v -0.303257 0.000000 0.726891
v -0.812561 0.000000 0.429383
v -0.444446 0.000000 0.868085
v -0.894351 0.000000 0.486658
v -0.608008 0.000000 0.982618
v -0.984844 0.000000 0.528860
v -0.788975 0.000000 1.067008
v -1.081291 0.000000 0.554707
v -0.981845 0.000000 1.118691
v -1.180761 0.000000 0.563413
v -1.180761 0.000000 1.136097
v 1.110098 0.000000 -0.009435
v 1.110098 0.000000 -2.300173
v 1.110098 0.033640 -2.300173
v 1.110098 0.033640 -0.009435
v 1.110096 0.033640 -0.009410
v 1.110096 0.000000 -0.009410
v 1.110099 0.033640 -0.009385
v 1.110099 0.000000 -0.009385
v 1.110106 0.033640 -0.009361
v 1.110106 0.000000 -0.009361
v 1.110117 0.033640 -0.009339
v 1.110117 0.000000 -0.009339
v 1.110131 0.033640 -0.009319
v 1.110131 0.000000 -0.009319
v 1.110149 0.033640 -0.009302
v 1.110149 0.000000 -0.009302
v 1.110170 0.033640 -0.009288
v 1.110170 0.000000 -0.009288
v 1.110193 0.033640 -0.009278
v 1.110193 0.000000 -0.009278
v 1.110217 0.033640 -0.009272
v 1.110217 0.000000 -0.009272
v -1.180641 0.000000 -0.009435
v -1.180641 0.033640 -0.009435
v -1.180641 0.033640 -2.300173
v -1.180641 0.000000 -2.300173
v -1.180640 0.000000 -0.009410
v -1.180640 0.033640 -0.009410
v -1.180642 0.000000 -0.009385
v -1.180642 0.033640 -0.009385
v -1.180649 0.000000 -0.009361
v -1.180649 0.033640 -0.009361
v -1.180660 0.000000 -0.009339
v -1.180660 0.033640 -0.009339
v -1.180675 0.000000 -0.009319
v -1.180675 0.033640 -0.009319
v -1.180693 0.000000 -0.009302
v -1.180693 0.033640 -0.009302
v -1.180713 0.000000 -0.009288
v -1.180713 0.033640 -0.009288
v -1.180736 0.000000 -0.009278
v -1.180736 0.033640 -0.009278
v -1.180760 0.000000 -0.009272
v -1.180760 0.033640 -0.009272
v 0.541846 0.033640 -0.009435
v 0.541846 0.033640 -2.300173
v 0.537413 0.030979 -2.300173
v 0.537413 0.030979 -0.009435
v 0.546112 0.030979 0.090036
v 0.550477 0.033640 0.089267
v 0.571951 0.030979 0.186485
v 0.576117 0.033640 0.184969
v 0.614146 0.030979 0.276981
v 0.617985 0.033640 0.274765
v 0.671415 0.030979 0.358776
v 0.674810 0.033640 0.355927
v 0.742017 0.030979 0.429383
v 0.744866 0.033640 0.425988
v 0.823807 0.030979 0.486658
v 0.826024 0.033640 0.482819
v 0.914301 0.030979 0.528860
v 0.915816 0.033640 0.524695
v 1.010747 0.030979 0.554707
v 1.011517 0.033640 0.550342
v 1.110218 0.030979 0.563413
v 1.110217 0.033640 0.558980
v -0.612389 0.033640 -0.009435
v -0.607956 0.030979 -0.009435
v -0.607956 0.030979 -2.300173
v -0.612389 0.033640 -2.300173
v -0.621020 0.033640 0.089267
v -0.616655 0.030979 0.090036
v -0.646660 0.033640 0.184969
v -0.642495 0.030979 0.186485
v -0.688528 0.033640 0.274765
v -0.684690 0.030979 0.276981
v -0.745354 0.033640 0.355927
v -0.741958 0.030979 0.358776
v -0.815409 0.033640 0.425988
v -0.812561 0.030979 0.429383
v -0.896566 0.033640 0.482819
v -0.894351 0.030979 0.486658
v -0.986360 0.033640 0.524695
v -0.984844 0.030979 0.528860
v -1.082060 0.033640 0.550342
v -1.081291 0.030979 0.554707
v -1.180761 0.033640 0.558980
v -1.180761 0.030979 0.563413
v 0.573159 0.033640 -0.009435
v 0.573159 0.033640 -2.300173
v 0.581314 0.033640 0.083829
v 0.605541 0.033640 0.174259
v 0.645103 0.033640 0.259109
v 0.698798 0.033640 0.335799
v 0.764994 0.033640 0.402001
v 0.841680 0.033640 0.455701
v 0.926526 0.033640 0.495270
v 1.016954 0.033640 0.519505
v 1.110218 0.033640 0.527668
v -0.643702 0.033640 -2.300173
v -0.643702 0.033640 -0.009435
v -0.651858 0.033640 0.083829
v -0.676085 0.033640 0.174259
v -0.715646 0.033640 0.259109
v -0.769341 0.033640 0.335799
v -0.835537 0.033640 0.402001
v -0.912223 0.033640 0.455701
v -0.997070 0.033640 0.495270
v -1.087498 0.033640 0.519505
v -1.180761 0.033640 0.527668
v -1.184542 0.000000 1.127996
v -1.184542 0.000000 1.700681
v 1.106197 0.000000 1.700681
v 1.106197 0.000000 1.127996
v -1.184542 0.000000 2.273365
v 1.106197 0.000000 2.273366
v 1.106197 0.033640 2.273366
v -1.184542 0.033640 2.273365
v -1.184542 0.033640 1.705113
v 1.106197 0.033640 1.705113
v 1.106197 0.030979 1.700681
v -1.184542 0.030979 1.700681
v -1.184542 0.033640 1.736426
v 1.106197 0.033640 1.736426
vt 0.411726 -0.943080
vt 0.991281 -0.943080
vt 0.991281 1.000000
vt 0.411726 1.000000
vt 0.988724 1.000000
vt 0.434277 1.000000
vt 0.434277 0.879399
vt 0.988724 0.879399
vt 0.434277 0.755410
vt 0.988724 0.755410
vt 0.434277 0.639546
vt 0.988724 0.639546
vt 0.434277 0.535357
vt 0.988724 0.535357
vt 0.434277 0.434852
vt 0.988724 0.434852
vt 0.434277 0.342451
vt 0.988724 0.342451
vt 0.434277 0.223375
vt 0.988724 0.223375
vt 0.434277 0.106512
vt 0.988724 0.106512
vt 0.434277 -0.002040
vt 0.988724 -0.002030
vt 0.991281 1.000000
vt 0.991281 -0.943080
vt 0.988724 1.000000
vt 0.988724 0.879399
vt 0.434277 0.879399
vt 0.988724 0.755410
vt 0.434277 0.755410
vt 0.988724 0.639546
vt 0.434277 0.639546
vt 0.988724 0.535357
vt 0.434277 0.535357
vt 0.988724 0.434852
vt 0.434277 0.434852
vt 0.988724 0.342451
vt 0.434277 0.342451
vt 0.988724 0.223375
vt 0.434277 0.223375
vt 0.988724 0.106512
vt 0.434277 0.106512
vt 0.988724 -0.002030
vt 0.434277 -0.002040
vt 0.411726 -0.943080
vt 0.991281 -0.943080
vt 0.991281 1.000000
vt 0.411726 1.000000
vt 0.000000 0.000000
vt 0.000000 0.000000
vt 0.000000 0.000000
vt 0.000000 0.000000
vt 0.000000 0.000000
vt 0.000000 0.000000
vt 0.000000 0.000000
vt 0.000000 0.000000
vt 0.000000 0.000000
vt 0.000000 0.000000
vt 0.000000 0.000000
vt 0.000000 0.000000
vt 0.000000 0.000000
vt 0.000000 0.000000
vt 0.000000 0.000000
vt 0.000000 0.000000
vt 0.000000 0.000000
vt 0.000000 0.000000
vt 0.000000 0.000000
vt 0.000000 0.000000
vt 0.000000 0.000000
vt 0.000000 0.000000
vt 0.000000 0.000000
vt 0.000000 0.000000
vt 0.000000 0.000000
vt 0.000000 0.000000
vt 0.000000 0.000000
vt 0.000000 0.000000
vt 0.000000 0.000000
vt 0.000000 0.000000
vt 0.000000 0.000000
vt 0.000000 0.000000
vt 0.000000 0.000000
vt 0.000000 0.000000
vt 0.000000 0.000000
vt 0.000000 0.000000
vt 0.000000 0.000000
vt 0.000000 0.000000
vt 0.000000 0.000000
vt 0.000000 0.000000
vt 0.000000 0.000000
vt 0.000000 0.000000
vt 0.000000 0.000000
vt 0.000000 0.000000
vt 0.000000 0.000000
vt 0.000000 0.000000
vt 0.000000 0.000000
vt 0.000000 0.000000
vt -1.868691 -0.020601
vt 4.110485 -0.020601
vt 4.110485 1.004788
vt -1.868691 1.004788
vt 1.612336 -0.000668
vt 1.612336 1.000394
vt 1.361696 1.000394
vt 1.361691 -0.000668
vt 1.110534 1.000394
vt 1.110529 -0.000668
vt 0.858976 1.000394
vt 0.858976 -0.000668
vt 0.607163 1.000394
vt 0.607167 -0.000668
vt 0.355234 1.000394
vt 0.355242 -0.000668
vt 0.103329 1.000394
vt 0.103343 -0.000668
vt -0.148418 1.000394
vt -0.148398 -0.000668
vt -0.399838 1.000394
vt -0.399817 -0.000668
vt -0.650758 1.000394
vt -0.650741 -0.000668
vt -1.868691 -0.020601
vt -1.868691 1.004788
vt 4.110485 1.004788
vt 4.110485 -0.020601
vt 1.612336 -0.000668
vt 1.361691 -0.000668
vt 1.361696 1.000394
vt 1.612336 1.000394
vt 1.110529 -0.000668
vt 1.110534 1.000394
vt 0.858976 -0.000668
vt 0.858976 1.000394
vt 0.607167 -0.000668
vt 0.607163 1.000394
vt 0.355242 -0.000668
vt 0.355234 1.000394
vt 0.103343 -0.000668
vt 0.103329 1.000394
vt -0.148398 -0.000668
vt -0.148418 1.000394
vt -0.399817 -0.000668
vt -0.399838 1.000394
vt -0.650741 -0.000668
vt -0.650758 1.000394
vt -1.868691 -0.020601
vt 4.110485 -0.020601
vt 4.110485 1.004788
vt -1.868691 1.004788
vt 7.287572 0.000000
vt 0.000000 0.000000
vt 0.000000 1.000000
vt 7.287572 1.000000
vt 0.037058 1.065179
vt 0.037058 0.000407
vt 7.287621 0.000407
vt 7.287621 1.065179
vt 1.629502 -0.000545
vt 1.629502 0.987513
vt 1.413054 0.987513
vt 1.413061 -0.000545
vt 1.737646 0.000060
vt 1.737646 0.999949
vt 1.458431 0.999950
vt 1.458430 0.000060
vt 1.179216 0.999951
vt 1.179216 0.000060
vt 1.168343 0.987513
vt 1.168356 -0.000545
vt 0.902812 0.987513
vt 0.902829 -0.000545
vt 0.900000 0.999953
vt 0.900000 0.000060
vt 0.624516 0.987513
vt 0.624534 -0.000545
vt 0.620782 0.999954
vt 0.620784 0.000058
vt 0.341562 0.999954
vt 0.341568 0.000057
vt 0.341875 0.987513
vt 0.341893 -0.000545
vt 0.063446 0.987513
vt 0.063466 -0.000545
vt 0.062342 0.999954
vt 0.062350 0.000054
vt -0.216877 0.999952
vt -0.216869 0.000052
vt -0.202332 0.987513
vt -0.202305 -0.000545
vt -0.496098 0.999950
vt -0.496087 0.000049
vt -0.447375 0.987513
vt -0.447338 -0.000545
vt -0.664202 0.987513
vt -0.664156 -0.000545
vt -0.775318 0.999948
vt -0.775306 0.000046
vt 7.287572 0.000000
vt 7.287572 1.000000
vt 0.000000 1.000000
vt 0.000000 0.000000
vt 0.037058 1.065179
vt 7.287621 1.065179
vt 7.287621 0.000407
vt 0.037058 0.000407
vt 1.629502 -0.000545
vt 1.413061 -0.000545
vt 1.413054 0.987513
vt 1.629502 0.987513
vt 1.737646 0.000060
vt 1.458430 0.000060
vt 1.458431 0.999950
vt 1.737646 0.999949
vt 1.179216 0.000060
vt 1.179216 0.999951
vt 1.168356 -0.000545
vt 1.168343 0.987513
vt 0.902829 -0.000545
vt 0.902812 0.987513
vt 0.900000 0.000060
vt 0.900000 0.999953
vt 0.624534 -0.000545
vt 0.624516 0.987513
vt 0.620784 0.000058
vt 0.620782 0.999954
vt 0.341568 0.000057
vt 0.341562 0.999954
vt 0.341893 -0.000545
vt 0.341875 0.987513
vt 0.063466 -0.000545
vt 0.063446 0.987513
vt 0.062350 0.000054
vt 0.062342 0.999954
vt -0.216869 0.000052
vt -0.216877 0.999952
vt -0.202305 -0.000545
vt -0.202332 0.987513
vt -0.496087 0.000049
vt -0.496098 0.999950
vt -0.447338 -0.000545
vt -0.447375 0.987513
vt -0.664156 -0.000545
vt -0.664202 0.987513
vt -0.775306 0.000046
vt -0.775318 0.999948
vt 7.287572 0.000000
vt 0.000000 0.000000
vt 0.000000 1.000000
vt 7.287572 1.000000
vt 0.037058 1.065179
vt 0.037058 0.000407
vt 7.287621 0.000407
vt 7.287621 1.065179
vt 0.000000 -3.602234
vt 1.365877 -3.602234
vt 1.365877 3.212264
vt 0.000000 3.212264
vt 1.170550 0.803273
vt -0.197012 0.803273
vt -0.176240 0.560174
vt 1.170546 0.803208
vt -0.114535 0.324460
vt 1.170552 0.803144
vt -0.013773 0.103293
vt 1.170570 0.803082
vt 0.122985 -0.096607
vt 1.170598 0.803023
vt 0.291584 -0.269166
vt 1.170636 0.802971
vt 0.486901 -0.409142
vt 1.170681 0.802926
vt 0.703000 -0.512282
vt 1.170733 0.802890
vt 0.933317 -0.575449
vt 1.170791 0.802863
vt 1.170854 -0.596727
vt 1.170853 0.802848
vt 0.000000 -3.602234
vt 0.000000 3.212264
vt 1.365877 3.212264
vt 1.365877 -3.602234
vt 1.170550 0.803273
vt 1.170546 0.803208
vt -0.176240 0.560174
vt -0.197012 0.803273
vt 1.170552 0.803144
vt -0.114535 0.324460
vt 1.170570 0.803082
vt -0.013773 0.103293
vt 1.170598 0.803023
vt 0.122985 -0.096607
vt 1.170636 0.802971
vt 0.291584 -0.269166
vt 1.170681 0.802926
vt 0.486901 -0.409142
vt 1.170733 0.802890
vt 0.703000 -0.512282
vt 1.170791 0.802863
vt 0.933317 -0.575449
vt 1.170853 0.802848
vt 1.170854 -0.596727
vt 0.000000 -3.602234
vt 1.365877 -3.602234
vt 1.365877 3.212264
vt 0.000000 3.212264
vt 0.500000 0.795970
vt 0.495504 0.693183
vt 0.504496 0.693183
vt 0.482152 0.593518
vt 0.517848 0.593518
vt 0.460350 0.500004
vt 0.539650 0.500004
vt 0.430758 0.415483
vt 0.569242 0.415483
vt 0.394278 0.342522
vt 0.605722 0.342522
vt 0.352017 0.283339
vt 0.647983 0.283339
vt 0.305259 0.239731
vt 0.694741 0.239731
vt 0.255425 0.213024
vt 0.744575 0.213024
vt 0.204030 0.204030
vt 0.795970 0.204030
vn 0.0000 1.0000 0.0000
vn 1.0000 0.0000 0.0000
vn 0.9983 0.0000 0.0576
vn 0.9954 0.0000 -0.0957
vn 0.9594 0.0000 -0.2822
vn 0.8944 0.0000 -0.4472
vn 0.8137 0.0000 -0.5812
vn 0.6775 0.0000 -0.7356
vn 0.5592 0.0000 -0.8291
vn 0.4166 0.0000 -0.9091
vn 0.2334 0.0000 -0.9724
vn -1.0000 0.0000 0.0000
vn -0.9983 0.0000 0.0576
vn -0.9954 0.0000 -0.0957
vn -0.9594 0.0000 -0.2822
vn -0.8944 0.0000 -0.4472
vn -0.8137 0.0000 -0.5812
vn -0.6679 0.0000 -0.7443
vn -0.5682 0.0000 -0.8229
vn -0.4166 0.0000 -0.9091
vn -0.2334 0.0000 -0.9724
vn -0.0000 0.0000 1.0000
vn -0.5148 0.8573 0.0000
vn -0.5143 0.8564 0.0450
vn -0.4987 0.8564 0.1336
vn -0.4679 0.8564 0.2182
vn -0.4229 0.8564 0.2961
vn -0.3651 0.8564 0.3650
vn -0.2961 0.8565 0.4229
vn -0.2182 0.8564 0.4679
vn -0.1336 0.8564 0.4986
vn -0.0450 0.8565 0.5143
vn 0.5148 0.8573 0.0000
vn 0.5143 0.8565 0.0450
vn 0.4987 0.8564 0.1336
vn 0.4679 0.8564 0.2182
vn 0.4229 0.8564 0.2961
vn 0.3651 0.8564 0.3650
vn 0.2961 0.8564 0.4229
vn 0.2182 0.8564 0.4679
vn 0.1336 0.8564 0.4986
vn 0.0450 0.8565 0.5143
vn 0.0000 0.8573 -0.5148
vn -0.9962 0.0000 0.0871
vn -0.9659 0.0000 0.2588
vn -0.9063 0.0000 0.4226
vn -0.8192 0.0000 0.5735
vn -0.7071 0.0000 0.7071
vn -0.5736 0.0000 0.8191
vn -0.4227 0.0000 0.9063
vn -0.2589 0.0000 0.9659
vn -0.0872 0.0000 0.9962
vn 0.9962 0.0000 0.0871
vn 0.9659 0.0000 0.2588
vn 0.9063 0.0000 0.4226
vn 0.8192 0.0000 0.5735
vn 0.7071 0.0000 0.7071
vn 0.5736 0.0000 0.8191
vn 0.4227 0.0000 0.9063
vn 0.2589 0.0000 0.9659
vn 0.0872 0.0000 0.9962
vn 0.0000 0.0000 -1.0000
usemtl None_Roads0069_9_S.jpg
s off
f 1/1/1 2/2/1 3/3/1 4/4/1
f 2/5/1 1/6/1 5/7/1 6/8/1
f 6/8/1 5/7/1 7/9/1 8/10/1
f 8/10/1 7/9/1 9/11/1 10/12/1
f 10/12/1 9/11/1 11/13/1 12/14/1
f 12/14/1 11/13/1 13/15/1 14/16/1
f 14/16/1 13/15/1 15/17/1 16/18/1
f 16/18/1 15/17/1 17/19/1 18/20/1
f 18/20/1 17/19/1 19/21/1 20/22/1
f 20/22/1 19/21/1 21/23/1 22/24/1
f 1/1/1 4/4/1 23/25/1 24/26/1
f 24/27/1 25/28/1 26/29/1 1/6/1
f 25/28/1 27/30/1 28/31/1 26/29/1
f 27/30/1 29/32/1 30/33/1 28/31/1
f 29/32/1 31/34/1 32/35/1 30/33/1
f 31/34/1 33/36/1 34/37/1 32/35/1
f 33/36/1 35/38/1 36/39/1 34/37/1
f 35/38/1 37/40/1 38/41/1 36/39/1
f 37/40/1 39/42/1 40/43/1 38/41/1
f 39/42/1 41/44/1 42/45/1 40/43/1
f 153/46/1 154/47/1 155/48/1 156/49/1
usemtl None_NONE
f 43/50/2 44/51/2 45/52/2 46/53/2
f 43/50/3 46/53/3 47/54/3 48/55/3
f 48/55/4 47/54/4 49/56/4 50/57/4
f 50/57/5 49/56/5 51/58/5 52/59/5
f 52/59/6 51/58/6 53/60/6 54/61/6
f 54/61/7 53/60/7 55/62/7 56/63/7
f 56/63/8 55/62/8 57/64/8 58/65/8
f 58/65/9 57/64/9 59/66/9 60/67/9
f 60/67/10 59/66/10 61/68/10 62/69/10
f 62/69/11 61/68/11 63/70/11 64/71/11
f 65/72/12 66/73/12 67/74/12 68/75/12
f 65/72/13 69/76/13 70/77/13 66/73/13
f 69/76/14 71/78/14 72/79/14 70/77/14
f 71/78/15 73/80/15 74/81/15 72/79/15
f 73/80/16 75/82/16 76/83/16 74/81/16
f 75/82/17 77/84/17 78/85/17 76/83/17
f 77/84/18 79/86/18 80/87/18 78/85/18
f 79/86/19 81/88/19 82/89/19 80/87/19
f 81/88/20 83/90/20 84/91/20 82/89/20
f 83/90/21 85/92/21 86/93/21 84/91/21
f 157/94/22 158/95/22 159/96/22 160/97/22
usemtl None_CordonMedium.jpg.001
f 87/98/23 88/99/23 89/100/23 90/101/23
f 87/102/24 90/103/24 91/104/24 92/105/24
f 92/105/25 91/104/25 93/106/25 94/107/25
f 94/107/26 93/106/26 95/108/26 96/109/26
f 96/109/27 95/108/27 97/110/27 98/111/27
f 98/111/28 97/110/28 99/112/28 100/113/28
f 100/113/29 99/112/29 101/114/29 102/115/29
f 102/115/30 101/114/30 103/116/30 104/117/30
f 104/117/31 103/116/31 105/118/31 106/119/31
f 106/119/32 105/118/32 107/120/32 108/121/32
f 109/122/33 110/123/33 111/124/33 112/125/33
f 109/126/34 113/127/34 114/128/34 110/129/34
f 113/127/35 115/130/35 116/131/35 114/128/35
f 115/130/36 117/132/36 118/133/36 116/131/36
f 117/132/37 119/134/37 120/135/37 118/133/37
f 119/134/38 121/136/38 122/137/38 120/135/38
f 121/136/39 123/138/39 124/139/39 122/137/39
f 123/138/40 125/140/40 126/141/40 124/139/40
f 125/140/41 127/142/41 128/143/41 126/141/41
f 127/142/42 129/144/42 130/145/42 128/143/42
f 161/146/43 162/147/43 163/148/43 164/149/43
usemtl None_CordonTop.jpg.001
f 3/150/12 2/151/12 90/152/12 89/153/12
f 87/154/1 131/155/1 132/156/1 88/157/1
f 131/158/1 87/159/1 92/160/1 133/161/1
f 90/162/44 2/163/44 6/164/44 91/165/44
f 91/165/45 6/164/45 8/166/45 93/167/45
f 133/161/1 92/160/1 94/168/1 134/169/1
f 134/169/1 94/168/1 96/170/1 135/171/1
f 93/167/46 8/166/46 10/172/46 95/173/46
f 135/171/1 96/170/1 98/174/1 136/175/1
f 95/173/47 10/172/47 12/176/47 97/177/47
f 97/177/48 12/176/48 14/178/48 99/179/48
f 136/175/1 98/174/1 100/180/1 137/181/1
f 137/181/1 100/180/1 102/182/1 138/183/1
f 99/179/49 14/178/49 16/184/49 101/185/49
f 101/185/50 16/184/50 18/186/50 103/187/50
f 138/183/1 102/182/1 104/188/1 139/189/1
f 103/187/51 18/186/51 20/190/51 105/191/51
f 139/189/1 104/188/1 106/192/1 140/193/1
f 140/193/1 106/192/1 108/194/1 141/195/1
f 105/191/52 20/190/52 22/196/52 107/197/52
f 23/198/2 111/199/2 110/200/2 24/201/2
f 109/202/1 112/203/1 142/204/1 143/205/1
f 143/206/1 144/207/1 113/208/1 109/209/1
f 110/210/53 114/211/53 25/212/53 24/213/53
f 114/211/54 116/214/54 27/215/54 25/212/54
f 144/207/1 145/216/1 115/217/1 113/208/1
f 145/216/1 146/218/1 117/219/1 115/217/1
f 116/214/55 118/220/55 29/221/55 27/215/55
f 146/218/1 147/222/1 119/223/1 117/219/1
f 118/220/56 120/224/56 31/225/56 29/221/56
f 120/224/57 122/226/57 33/227/57 31/225/57
f 147/222/1 148/228/1 121/229/1 119/223/1
f 148/228/1 149/230/1 123/231/1 121/229/1
f 122/226/58 124/232/58 35/233/58 33/227/58
f 124/232/59 126/234/59 37/235/59 35/233/59
f 149/230/1 150/236/1 125/237/1 123/231/1
f 126/234/60 128/238/60 39/239/60 37/235/60
f 150/236/1 151/240/1 127/241/1 125/237/1
f 151/240/1 152/242/1 129/243/1 127/241/1
f 128/238/61 130/244/61 41/245/61 39/239/61
f 155/246/62 154/247/62 164/248/62 163/249/62
f 161/250/1 165/251/1 166/252/1 162/253/1
usemtl None_FloorsRegular0277_1_S.jpg.001
f 131/254/1 46/255/1 45/256/1 132/257/1
f 46/258/1 131/259/1 133/260/1 47/261/1
f 47/261/1 133/260/1 134/262/1 49/263/1
f 49/263/1 134/262/1 135/264/1 51/265/1
f 51/265/1 135/264/1 136/266/1 53/267/1
f 53/267/1 136/266/1 137/268/1 55/269/1
f 55/269/1 137/268/1 138/270/1 57/271/1
f 57/271/1 138/270/1 139/272/1 59/273/1
f 59/273/1 139/272/1 140/274/1 61/275/1
f 61/275/1 140/274/1 141/276/1 63/277/1
f 143/278/1 142/279/1 67/280/1 66/281/1
f 66/282/1 70/283/1 144/284/1 143/285/1
f 70/283/1 72/286/1 145/287/1 144/284/1
f 72/286/1 74/288/1 146/289/1 145/287/1
f 74/288/1 76/290/1 147/291/1 146/289/1
f 76/290/1 78/292/1 148/293/1 147/291/1
f 78/292/1 80/294/1 149/295/1 148/293/1
f 80/294/1 82/296/1 150/297/1 149/295/1
f 82/296/1 84/298/1 151/299/1 150/297/1
f 84/298/1 86/300/1 152/301/1 151/299/1
f 165/302/1 160/303/1 159/304/1 166/305/1
usemtl None_RoadTexture2.jpg
f 1/306/1 26/307/1 5/308/1
f 5/308/1 26/307/1 28/309/1 7/310/1
f 7/310/1 28/309/1 30/311/1 9/312/1
f 9/312/1 30/311/1 32/313/1 11/314/1
f 11/314/1 32/313/1 34/315/1 13/316/1
f 13/316/1 34/315/1 36/317/1 15/318/1
f 15/318/1 36/317/1 38/319/1 17/320/1
f 17/320/1 38/319/1 40/321/1 19/322/1
f 19/322/1 40/321/1 42/323/1 21/324/1
