# Blender v2.79 (sub 0) OBJ File: ''
# www.blender.org
mtllib car02.mtl
o CAR_03
v -0.388788 0.069893 0.228474
v -0.420680 0.272284 0.228474
v -0.420680 0.272284 -0.293168
v -0.388788 0.069893 -0.293168
v -0.269816 0.509160 0.228474
v -0.269816 0.509160 -0.293167
v 0.220938 0.153167 -0.293168
v 0.220938 0.069893 -0.293168
v 0.404419 0.153167 -0.293168
v 0.404419 0.069893 -0.293168
v 0.829203 0.155343 -0.293168
v 0.829203 0.069893 -0.293168
v 0.220938 0.510819 -0.293167
v 0.404419 0.295001 -0.293168
v 0.829203 0.177385 -0.293168
v 0.829203 0.155343 0.228474
v 0.829203 0.069893 0.228474
v 0.829203 0.177385 0.228474
v 0.404419 0.153167 0.228474
v 0.404419 0.069893 0.228474
v 0.220938 0.153167 0.228474
v 0.220938 0.069893 0.228474
v 0.404419 0.295001 0.228474
v 0.220938 0.510819 0.228474
v 0.609179 0.072011 -0.267881
v 0.682851 0.072011 -0.267881
v 0.678408 0.095824 -0.267881
v 0.682851 0.072011 -0.309587
v 0.678408 0.095824 -0.309587
v 0.609179 0.072011 -0.309587
v 0.665615 0.116764 -0.267881
v 0.665615 0.116764 -0.309587
v 0.646015 0.132306 -0.267881
v 0.646015 0.132306 -0.309587
v 0.621972 0.140576 -0.267881
v 0.621972 0.140576 -0.309587
v 0.596386 0.140576 -0.267881
v 0.596386 0.140576 -0.309587
v 0.572343 0.132306 -0.267881
v 0.572343 0.132306 -0.309587
v 0.552743 0.116764 -0.267881
v 0.552743 0.116764 -0.309587
v 0.539950 0.095824 -0.267881
v 0.539950 0.095824 -0.309587
v 0.535508 0.072011 -0.267881
v 0.535508 0.072011 -0.309587
v 0.539950 0.048199 -0.267881
v 0.539950 0.048199 -0.309587
v 0.552743 0.027259 -0.267881
v 0.552743 0.027259 -0.309587
v 0.572343 0.011716 -0.267881
v 0.572343 0.011716 -0.309587
v 0.596386 0.003446 -0.267881
v 0.596386 0.003446 -0.309587
v 0.621972 0.003446 -0.267881
v 0.621972 0.003446 -0.309587
v 0.646015 0.011716 -0.267881
v 0.646015 0.011716 -0.309587
v 0.665615 0.027259 -0.267881
v 0.665615 0.027259 -0.309587
v 0.678408 0.048199 -0.267881
v 0.678408 0.048199 -0.309587
v 0.609179 0.072011 0.244612
v 0.682851 0.072011 0.244612
v 0.678408 0.095824 0.244612
v 0.682851 0.072011 0.202906
v 0.678408 0.095824 0.202906
v 0.609179 0.072011 0.202906
v 0.665615 0.116764 0.244612
v 0.665615 0.116764 0.202906
v 0.646015 0.132306 0.244612
v 0.646015 0.132306 0.202906
v 0.621972 0.140576 0.244612
v 0.621972 0.140576 0.202906
v 0.596386 0.140576 0.244612
v 0.596386 0.140576 0.202906
v 0.572344 0.132306 0.244612
v 0.572344 0.132306 0.202906
v 0.552744 0.116764 0.244612
v 0.552744 0.116764 0.202906
v 0.539951 0.095824 0.244612
v 0.539951 0.095824 0.202906
v 0.535508 0.072011 0.244612
v 0.535508 0.072011 0.202906
v 0.539951 0.048199 0.244612
v 0.539951 0.048199 0.202906
v 0.552744 0.027259 0.244612
v 0.552744 0.027259 0.202906
v 0.572344 0.011716 0.244612
v 0.572344 0.011716 0.202906
v 0.596386 0.003446 0.244612
v 0.596386 0.003446 0.202906
v 0.621972 0.003446 0.244612
v 0.621972 0.003446 0.202906
v 0.646015 0.011716 0.244612
v 0.646015 0.011716 0.202906
v 0.665615 0.027259 0.244612
v 0.665615 0.027259 0.202906
v 0.678408 0.048199 0.244612
v 0.678408 0.048199 0.202906
v -0.218930 0.072011 -0.267881
v -0.145259 0.072011 -0.267881
v -0.149701 0.095824 -0.267881
v -0.145259 0.072011 -0.309587
v -0.149701 0.095824 -0.309587
v -0.218930 0.072011 -0.309587
v -0.162494 0.116764 -0.267881
v -0.162494 0.116764 -0.309587
v -0.182094 0.132306 -0.267881
v -0.182094 0.132306 -0.309587
v -0.206137 0.140576 -0.267881
v -0.206137 0.140576 -0.309587
v -0.231723 0.140576 -0.267881
v -0.231723 0.140576 -0.309587
v -0.255766 0.132306 -0.267881
v -0.255766 0.132306 -0.309587
v -0.275366 0.116764 -0.267881
v -0.275366 0.116764 -0.309587
v -0.288159 0.095824 -0.267881
v -0.288159 0.095824 -0.309587
v -0.292602 0.072011 -0.267881
v -0.292602 0.072011 -0.309587
v -0.288159 0.048199 -0.267881
v -0.288159 0.048199 -0.309587
v -0.275366 0.027259 -0.267881
v -0.275366 0.027259 -0.309587
v -0.255766 0.011716 -0.267881
v -0.255766 0.011716 -0.309587
v -0.231723 0.003446 -0.267881
v -0.231723 0.003446 -0.309587
v -0.206137 0.003446 -0.267881
v -0.206137 0.003446 -0.309587
v -0.182094 0.011716 -0.267881
v -0.182094 0.011716 -0.309587
v -0.162494 0.027259 -0.267881
v -0.162494 0.027259 -0.309587
v -0.149701 0.048199 -0.267881
v -0.149701 0.048199 -0.309587
v -0.218930 0.072011 0.244612
v -0.145258 0.072011 0.244612
v -0.149701 0.095824 0.244612
v -0.145258 0.072011 0.202906
v -0.149701 0.095824 0.202906
v -0.218930 0.072011 0.202906
v -0.162494 0.116764 0.244612
v -0.162494 0.116764 0.202906
v -0.182094 0.132306 0.244612
v -0.182094 0.132306 0.202906
v -0.206137 0.140576 0.244612
v -0.206137 0.140576 0.202906
v -0.231723 0.140576 0.244612
v -0.231723 0.140576 0.202906
v -0.255766 0.132306 0.244612
v -0.255766 0.132306 0.202906
v -0.275366 0.116764 0.244612
v -0.275366 0.116764 0.202906
v -0.288159 0.095824 0.244612
v -0.288159 0.095824 0.202906
v -0.292602 0.072011 0.244612
v -0.292602 0.072011 0.202906
v -0.288159 0.048199 0.244612
v -0.288159 0.048199 0.202906
v -0.275366 0.027259 0.244612
v -0.275366 0.027259 0.202906
v -0.255766 0.011716 0.244612
v -0.255766 0.011716 0.202906
v -0.231723 0.003446 0.244612
v -0.231723 0.003446 0.202906
v -0.206137 0.003446 0.244612
v -0.206137 0.003446 0.202906
v -0.182094 0.011716 0.244612
v -0.182094 0.011716 0.202906
v -0.162494 0.027259 0.244612
v -0.162494 0.027259 0.202906
v -0.149701 0.048199 0.244612
v -0.149701 0.048199 0.202906
vt 0.929503 0.469028
vt 0.821501 0.469028
vt 0.821501 0.722210
vt 0.929503 0.722210
vt 0.673463 0.469028
vt 0.673463 0.722210
vt 0.027499 0.238615
vt 0.009525 0.336847
vt 0.371136 0.279033
vt 0.371136 0.238615
vt 0.474544 0.279033
vt 0.474544 0.238615
vt 0.713949 0.280089
vt 0.713949 0.238615
vt 0.094551 0.451817
vt 0.371136 0.452622
vt 0.474544 0.347873
vt 0.713949 0.290788
vt 0.715025 0.991797
vt 0.763184 0.991797
vt 0.763184 0.738615
vt 0.715025 0.738615
vt 0.775607 0.991797
vt 0.775607 0.738615
vt 0.009525 0.008203
vt 0.009525 0.049677
vt 0.248930 0.048621
vt 0.248930 0.008203
vt 0.352338 0.048621
vt 0.352338 0.008203
vt 0.713949 0.106435
vt 0.695975 0.008203
vt 0.009525 0.060375
vt 0.248930 0.117461
vt 0.352338 0.222210
vt 0.628923 0.221404
vt 0.654413 0.469028
vt 0.397303 0.469028
vt 0.397303 0.722210
vt 0.654413 0.722210
vt 0.256595 0.469028
vt 0.256595 0.722210
vt 0.009525 0.469028
vt 0.009525 0.722210
vt 0.695975 0.738615
vt 0.456570 0.738615
vt 0.456570 0.991797
vt 0.695975 0.991797
vt 0.353162 0.738615
vt 0.353162 0.991797
vt 0.009525 0.738615
vt 0.009525 0.991797
vt 0.876612 0.354857
vt 0.835091 0.354857
vt 0.837595 0.366414
vt 0.928707 0.404541
vt 0.928707 0.424783
vt 0.941460 0.424783
vt 0.941460 0.404541
vt 0.877699 0.792593
vt 0.836178 0.792593
vt 0.875195 0.804151
vt 0.844805 0.376578
vt 0.951776 0.424783
vt 0.951776 0.404541
vt 0.867985 0.814314
vt 0.855852 0.384121
vt 0.937183 0.321578
vt 0.937183 0.341820
vt 0.949535 0.341820
vt 0.949535 0.321578
vt 0.856938 0.821858
vt 0.869402 0.388135
vt 0.963673 0.341820
vt 0.963673 0.321578
vt 0.843388 0.825872
vt 0.883822 0.388135
vt 0.977891 0.341820
vt 0.977891 0.321578
vt 0.828968 0.825872
vt 0.897372 0.384121
vt 0.990475 0.341820
vt 0.990475 0.321578
vt 0.815418 0.821858
vt 0.908419 0.376578
vt 0.732999 0.201968
vt 0.732999 0.222210
vt 0.743599 0.222210
vt 0.743599 0.201968
vt 0.804371 0.814314
vt 0.915629 0.366414
vt 0.756504 0.222210
vt 0.756504 0.201968
vt 0.797161 0.804151
vt 0.918133 0.354857
vt 0.770156 0.222210
vt 0.770156 0.201968
vt 0.794657 0.792593
vt 0.915629 0.343299
vt 0.782909 0.222210
vt 0.782909 0.201968
vt 0.797161 0.781036
vt 0.908419 0.333136
vt 0.793225 0.222210
vt 0.793225 0.201968
vt 0.804371 0.770873
vt 0.897372 0.325592
vt 0.805341 0.165320
vt 0.805341 0.185562
vt 0.817694 0.185562
vt 0.817694 0.165320
vt 0.815418 0.763329
vt 0.883822 0.321578
vt 0.831831 0.185562
vt 0.831831 0.165320
vt 0.828968 0.759315
vt 0.869402 0.321578
vt 0.846050 0.185562
vt 0.846050 0.165320
vt 0.843388 0.759315
vt 0.855852 0.325592
vt 0.858633 0.185562
vt 0.858633 0.165320
vt 0.856938 0.763329
vt 0.844805 0.333136
vt 0.891550 0.404541
vt 0.891550 0.424783
vt 0.902151 0.424783
vt 0.902151 0.404541
vt 0.867985 0.770873
vt 0.837595 0.343299
vt 0.915055 0.424783
vt 0.915055 0.404541
vt 0.875195 0.781036
vt 0.876612 0.271894
vt 0.835091 0.271894
vt 0.837595 0.283451
vt 0.849431 0.201968
vt 0.849431 0.222210
vt 0.862184 0.222210
vt 0.862184 0.201968
vt 0.979791 0.958519
vt 0.938270 0.958519
vt 0.977287 0.970076
vt 0.844805 0.293615
vt 0.872500 0.222210
vt 0.872500 0.201968
vt 0.970077 0.980240
vt 0.855852 0.301159
vt 0.937183 0.358226
vt 0.937183 0.378468
vt 0.949535 0.378468
vt 0.949535 0.358226
vt 0.959030 0.987783
vt 0.869402 0.305172
vt 0.963673 0.378468
vt 0.963673 0.358226
vt 0.945480 0.991797
vt 0.883822 0.305172
vt 0.977891 0.378468
vt 0.977891 0.358226
vt 0.931060 0.991797
vt 0.897372 0.301159
vt 0.990475 0.378468
vt 0.990475 0.358226
vt 0.917509 0.987783
vt 0.908419 0.293615
vt 0.732999 0.404541
vt 0.732999 0.424783
vt 0.743599 0.424783
vt 0.743599 0.404541
vt 0.906463 0.980240
vt 0.915629 0.283451
vt 0.756504 0.424783
vt 0.756504 0.404541
vt 0.899253 0.970076
vt 0.918133 0.271894
vt 0.770156 0.424783
vt 0.770156 0.404541
vt 0.896749 0.958519
vt 0.915629 0.260336
vt 0.782909 0.424783
vt 0.782909 0.404541
vt 0.899253 0.946961
vt 0.908419 0.250173
vt 0.793225 0.424783
vt 0.793225 0.404541
vt 0.906463 0.936798
vt 0.897372 0.242629
vt 0.896749 0.759315
vt 0.896749 0.779557
vt 0.909101 0.779557
vt 0.909101 0.759315
vt 0.917509 0.929254
vt 0.883822 0.238615
vt 0.923239 0.779557
vt 0.923239 0.759315
vt 0.931060 0.925240
vt 0.869402 0.238615
vt 0.937457 0.779557
vt 0.937457 0.759315
vt 0.945480 0.925240
vt 0.855852 0.242629
vt 0.950041 0.779557
vt 0.950041 0.759315
vt 0.959030 0.929254
vt 0.844805 0.250173
vt 0.812275 0.201968
vt 0.812275 0.222210
vt 0.822875 0.222210
vt 0.822875 0.201968
vt 0.970077 0.936798
vt 0.837595 0.260336
vt 0.835779 0.222210
vt 0.835779 0.201968
vt 0.977287 0.946961
vt 0.836178 0.958519
vt 0.794657 0.958519
vt 0.797161 0.970076
vt 0.933906 0.888593
vt 0.933906 0.908835
vt 0.946659 0.908835
vt 0.946659 0.888593
vt 0.877699 0.875556
vt 0.836178 0.875556
vt 0.875195 0.887114
vt 0.804371 0.980240
vt 0.956974 0.908835
vt 0.956974 0.888593
vt 0.867985 0.897277
vt 0.815418 0.987783
vt 0.937183 0.284930
vt 0.937183 0.305172
vt 0.949535 0.305172
vt 0.949535 0.284930
vt 0.856938 0.904821
vt 0.828968 0.991797
vt 0.963673 0.305172
vt 0.963673 0.284930
vt 0.843388 0.908835
vt 0.843388 0.991797
vt 0.977891 0.305172
vt 0.977891 0.284930
vt 0.828968 0.908835
vt 0.856938 0.987783
vt 0.990475 0.305172
vt 0.990475 0.284930
vt 0.815418 0.904821
vt 0.867985 0.980240
vt 0.896749 0.851945
vt 0.896749 0.872187
vt 0.907349 0.872187
vt 0.907349 0.851945
vt 0.804371 0.897277
vt 0.875195 0.970076
vt 0.920254 0.872187
vt 0.920254 0.851945
vt 0.797161 0.887114
vt 0.877699 0.958519
vt 0.933906 0.872187
vt 0.933906 0.851945
vt 0.794657 0.875556
vt 0.875195 0.946961
vt 0.946659 0.872187
vt 0.946659 0.851945
vt 0.797161 0.863999
vt 0.867985 0.936798
vt 0.956974 0.872187
vt 0.956974 0.851945
vt 0.804371 0.853835
vt 0.856938 0.929254
vt 0.877684 0.165320
vt 0.877684 0.185562
vt 0.890036 0.185562
vt 0.890036 0.165320
vt 0.815418 0.846292
vt 0.843388 0.925240
vt 0.904173 0.185562
vt 0.904173 0.165320
vt 0.828968 0.842278
vt 0.828968 0.925240
vt 0.918392 0.185562
vt 0.918392 0.165320
vt 0.843388 0.842278
vt 0.815418 0.929254
vt 0.930975 0.185562
vt 0.930975 0.165320
vt 0.856938 0.846292
vt 0.804371 0.936798
vt 0.896749 0.888593
vt 0.896749 0.908835
vt 0.907349 0.908835
vt 0.907349 0.888593
vt 0.867985 0.853835
vt 0.797161 0.946961
vt 0.920254 0.908835
vt 0.920254 0.888593
vt 0.875195 0.863999
vt 0.774520 0.354857
vt 0.732999 0.354857
vt 0.735503 0.366414
vt 0.928707 0.201968
vt 0.928707 0.222210
vt 0.941460 0.222210
vt 0.941460 0.201968
vt 0.816041 0.271894
vt 0.774520 0.271894
vt 0.813537 0.283451
vt 0.742713 0.376578
vt 0.951776 0.222210
vt 0.951776 0.201968
vt 0.806327 0.293615
vt 0.753760 0.384121
vt 0.732999 0.165320
vt 0.732999 0.185562
vt 0.745351 0.185562
vt 0.745351 0.165320
vt 0.795281 0.301159
vt 0.767310 0.388135
vt 0.759489 0.185562
vt 0.759489 0.165320
vt 0.781730 0.305172
vt 0.781730 0.388135
vt 0.773707 0.185562
vt 0.773707 0.165320
vt 0.767310 0.305172
vt 0.795281 0.384121
vt 0.786291 0.185562
vt 0.786291 0.165320
vt 0.753760 0.301159
vt 0.806327 0.376578
vt 0.812275 0.404541
vt 0.812275 0.424783
vt 0.822875 0.424783
vt 0.822875 0.404541
vt 0.742713 0.293615
vt 0.813537 0.366414
vt 0.835779 0.424783
vt 0.835779 0.404541
vt 0.735503 0.283451
vt 0.816041 0.354857
vt 0.849431 0.424783
vt 0.849431 0.404541
vt 0.732999 0.271894
vt 0.813537 0.343299
vt 0.862184 0.424783
vt 0.862184 0.404541
vt 0.735503 0.260336
vt 0.806327 0.333136
vt 0.872500 0.424783
vt 0.872500 0.404541
vt 0.742713 0.250173
vt 0.795281 0.325592
vt 0.896749 0.795963
vt 0.896749 0.816205
vt 0.909101 0.816205
vt 0.909101 0.795963
vt 0.753760 0.242629
vt 0.781730 0.321578
vt 0.923239 0.816205
vt 0.923239 0.795963
vt 0.767310 0.238615
vt 0.767310 0.321578
vt 0.937457 0.816205
vt 0.937457 0.795963
vt 0.781730 0.238615
vt 0.753760 0.325592
vt 0.950041 0.816205
vt 0.950041 0.795963
vt 0.795281 0.242629
vt 0.742713 0.333136
vt 0.891550 0.201968
vt 0.891550 0.222210
vt 0.902151 0.222210
vt 0.902151 0.201968
vt 0.806327 0.250173
vt 0.735503 0.343299
vt 0.915055 0.222210
vt 0.915055 0.201968
vt 0.813537 0.260336
vn -0.9878 -0.1557 0.0000
vn -0.8435 0.5372 0.0000
vn 0.0000 0.0000 -1.0000
vn 1.0000 0.0000 0.0000
vn 0.0000 0.0000 1.0000
vn -0.0034 1.0000 0.0000
vn 0.7619 0.6477 -0.0000
vn 0.2668 0.9637 -0.0000
vn 0.0000 -1.0000 0.0000
vn 0.9830 0.1834 -0.0000
vn 0.8534 0.5213 -0.0000
vn 0.6213 0.7835 0.0000
vn 0.3253 0.9456 0.0000
vn 0.0000 1.0000 0.0000
vn -0.3253 0.9456 0.0000
vn -0.6213 0.7835 0.0000
vn -0.8534 0.5213 0.0000
vn -0.9830 0.1834 0.0000
vn -0.9830 -0.1834 0.0000
vn -0.8534 -0.5213 0.0000
vn -0.6213 -0.7835 0.0000
vn -0.3253 -0.9456 0.0000
vn 0.3253 -0.9456 -0.0000
vn 0.6213 -0.7835 0.0000
vn 0.8534 -0.5213 -0.0000
vn 0.9830 -0.1834 -0.0000
usemtl CAR_02
s off
f 1/1/1 2/2/1 3/3/1 4/4/1
f 2/2/2 5/5/2 6/6/2 3/3/2
f 4/7/3 3/8/3 7/9/3 8/10/3
f 8/10/3 7/9/3 9/11/3 10/12/3
f 10/12/3 9/11/3 11/13/3 12/14/3
f 3/8/3 6/15/3 13/16/3 7/9/3
f 7/9/3 13/16/3 14/17/3 9/11/3
f 9/11/3 14/17/3 15/18/3 11/13/3
f 12/19/4 11/20/4 16/21/4 17/22/4
f 11/20/4 15/23/4 18/24/4 16/21/4
f 17/25/5 16/26/5 19/27/5 20/28/5
f 20/28/5 19/27/5 21/29/5 22/30/5
f 22/30/5 21/29/5 2/31/5 1/32/5
f 16/26/5 18/33/5 23/34/5 19/27/5
f 19/27/5 23/34/5 24/35/5 21/29/5
f 21/29/5 24/35/5 5/36/5 2/31/5
f 5/37/6 24/38/6 13/39/6 6/40/6
f 24/38/7 23/41/7 14/42/7 13/39/7
f 23/41/8 18/43/8 15/44/8 14/42/8
f 17/45/9 20/46/9 10/47/9 12/48/9
f 20/46/9 22/49/9 8/50/9 10/47/9
f 22/49/9 1/51/9 4/52/9 8/50/9
f 25/53/5 26/54/5 27/55/5
f 26/56/10 28/57/10 29/58/10 27/59/10
f 28/60/3 30/61/3 29/62/3
f 25/53/5 27/55/5 31/63/5
f 27/59/11 29/58/11 32/64/11 31/65/11
f 29/62/3 30/61/3 32/66/3
f 25/53/5 31/63/5 33/67/5
f 31/68/12 32/69/12 34/70/12 33/71/12
f 32/66/3 30/61/3 34/72/3
f 25/53/5 33/67/5 35/73/5
f 33/71/13 34/70/13 36/74/13 35/75/13
f 34/72/3 30/61/3 36/76/3
f 25/53/5 35/73/5 37/77/5
f 35/75/14 36/74/14 38/78/14 37/79/14
f 36/76/3 30/61/3 38/80/3
f 25/53/5 37/77/5 39/81/5
f 37/79/15 38/78/15 40/82/15 39/83/15
f 38/80/3 30/61/3 40/84/3
f 25/53/5 39/81/5 41/85/5
f 39/86/16 40/87/16 42/88/16 41/89/16
f 40/84/3 30/61/3 42/90/3
f 25/53/5 41/85/5 43/91/5
f 41/89/17 42/88/17 44/92/17 43/93/17
f 42/90/3 30/61/3 44/94/3
f 25/53/5 43/91/5 45/95/5
f 43/93/18 44/92/18 46/96/18 45/97/18
f 44/94/3 30/61/3 46/98/3
f 25/53/5 45/95/5 47/99/5
f 45/97/19 46/96/19 48/100/19 47/101/19
f 46/98/3 30/61/3 48/102/3
f 25/53/5 47/99/5 49/103/5
f 47/101/20 48/100/20 50/104/20 49/105/20
f 48/102/3 30/61/3 50/106/3
f 25/53/5 49/103/5 51/107/5
f 49/108/21 50/109/21 52/110/21 51/111/21
f 50/106/3 30/61/3 52/112/3
f 25/53/5 51/107/5 53/113/5
f 51/111/22 52/110/22 54/114/22 53/115/22
f 52/112/3 30/61/3 54/116/3
f 25/53/5 53/113/5 55/117/5
f 53/115/9 54/114/9 56/118/9 55/119/9
f 54/116/3 30/61/3 56/120/3
f 25/53/5 55/117/5 57/121/5
f 55/119/23 56/118/23 58/122/23 57/123/23
f 56/120/3 30/61/3 58/124/3
f 25/53/5 57/121/5 59/125/5
f 57/126/24 58/127/24 60/128/24 59/129/24
f 58/124/3 30/61/3 60/130/3
f 25/53/5 59/125/5 61/131/5
f 59/129/25 60/128/25 62/132/25 61/133/25
f 60/130/3 30/61/3 62/134/3
f 25/53/5 61/131/5 26/54/5
f 61/133/26 62/132/26 28/57/26 26/56/26
f 62/134/3 30/61/3 28/60/3
f 63/135/5 64/136/5 65/137/5
f 64/138/10 66/139/10 67/140/10 65/141/10
f 66/142/3 68/143/3 67/144/3
f 63/135/5 65/137/5 69/145/5
f 65/141/11 67/140/11 70/146/11 69/147/11
f 67/144/3 68/143/3 70/148/3
f 63/135/5 69/145/5 71/149/5
f 69/150/12 70/151/12 72/152/12 71/153/12
f 70/148/3 68/143/3 72/154/3
f 63/135/5 71/149/5 73/155/5
f 71/153/13 72/152/13 74/156/13 73/157/13
f 72/154/3 68/143/3 74/158/3
f 63/135/5 73/155/5 75/159/5
f 73/157/14 74/156/14 76/160/14 75/161/14
f 74/158/3 68/143/3 76/162/3
f 63/135/5 75/159/5 77/163/5
f 75/161/15 76/160/15 78/164/15 77/165/15
f 76/162/3 68/143/3 78/166/3
f 63/135/5 77/163/5 79/167/5
f 77/168/16 78/169/16 80/170/16 79/171/16
f 78/166/3 68/143/3 80/172/3
f 63/135/5 79/167/5 81/173/5
f 79/171/17 80/170/17 82/174/17 81/175/17
f 80/172/3 68/143/3 82/176/3
f 63/135/5 81/173/5 83/177/5
f 81/175/18 82/174/18 84/178/18 83/179/18
f 82/176/3 68/143/3 84/180/3
f 63/135/5 83/177/5 85/181/5
f 83/179/19 84/178/19 86/182/19 85/183/19
f 84/180/3 68/143/3 86/184/3
f 63/135/5 85/181/5 87/185/5
f 85/183/20 86/182/20 88/186/20 87/187/20
f 86/184/3 68/143/3 88/188/3
f 63/135/5 87/185/5 89/189/5
f 87/190/21 88/191/21 90/192/21 89/193/21
f 88/188/3 68/143/3 90/194/3
f 63/135/5 89/189/5 91/195/5
f 89/193/22 90/192/22 92/196/22 91/197/22
f 90/194/3 68/143/3 92/198/3
f 63/135/5 91/195/5 93/199/5
f 91/197/9 92/196/9 94/200/9 93/201/9
f 92/198/3 68/143/3 94/202/3
f 63/135/5 93/199/5 95/203/5
f 93/201/23 94/200/23 96/204/23 95/205/23
f 94/202/3 68/143/3 96/206/3
f 63/135/5 95/203/5 97/207/5
f 95/208/24 96/209/24 98/210/24 97/211/24
f 96/206/3 68/143/3 98/212/3
f 63/135/5 97/207/5 99/213/5
f 97/211/25 98/210/25 100/214/25 99/215/25
f 98/212/3 68/143/3 100/216/3
f 63/135/5 99/213/5 64/136/5
f 99/215/26 100/214/26 66/139/26 64/138/26
f 100/216/3 68/143/3 66/142/3
f 101/217/5 102/218/5 103/219/5
f 102/220/10 104/221/10 105/222/10 103/223/10
f 104/224/3 106/225/3 105/226/3
f 101/217/5 103/219/5 107/227/5
f 103/223/11 105/222/11 108/228/11 107/229/11
f 105/226/3 106/225/3 108/230/3
f 101/217/5 107/227/5 109/231/5
f 107/232/12 108/233/12 110/234/12 109/235/12
f 108/230/3 106/225/3 110/236/3
f 101/217/5 109/231/5 111/237/5
f 109/235/13 110/234/13 112/238/13 111/239/13
f 110/236/3 106/225/3 112/240/3
f 101/217/5 111/237/5 113/241/5
f 111/239/14 112/238/14 114/242/14 113/243/14
f 112/240/3 106/225/3 114/244/3
f 101/217/5 113/241/5 115/245/5
f 113/243/15 114/242/15 116/246/15 115/247/15
f 114/244/3 106/225/3 116/248/3
f 101/217/5 115/245/5 117/249/5
f 115/250/16 116/251/16 118/252/16 117/253/16
f 116/248/3 106/225/3 118/254/3
f 101/217/5 117/249/5 119/255/5
f 117/253/17 118/252/17 120/256/17 119/257/17
f 118/254/3 106/225/3 120/258/3
f 101/217/5 119/255/5 121/259/5
f 119/257/18 120/256/18 122/260/18 121/261/18
f 120/258/3 106/225/3 122/262/3
f 101/217/5 121/259/5 123/263/5
f 121/261/19 122/260/19 124/264/19 123/265/19
f 122/262/3 106/225/3 124/266/3
f 101/217/5 123/263/5 125/267/5
f 123/265/20 124/264/20 126/268/20 125/269/20
f 124/266/3 106/225/3 126/270/3
f 101/217/5 125/267/5 127/271/5
f 125/272/21 126/273/21 128/274/21 127/275/21
f 126/270/3 106/225/3 128/276/3
f 101/217/5 127/271/5 129/277/5
f 127/275/22 128/274/22 130/278/22 129/279/22
f 128/276/3 106/225/3 130/280/3
f 101/217/5 129/277/5 131/281/5
f 129/279/9 130/278/9 132/282/9 131/283/9
f 130/280/3 106/225/3 132/284/3
f 101/217/5 131/281/5 133/285/5
f 131/283/23 132/282/23 134/286/23 133/287/23
f 132/284/3 106/225/3 134/288/3
f 101/217/5 133/285/5 135/289/5
f 133/290/24 134/291/24 136/292/24 135/293/24
f 134/288/3 106/225/3 136/294/3
f 101/217/5 135/289/5 137/295/5
f 135/293/25 136/292/25 138/296/25 137/297/25
f 136/294/3 106/225/3 138/298/3
f 101/217/5 137/295/5 102/218/5
f 137/297/26 138/296/26 104/221/26 102/220/26
f 138/298/3 106/225/3 104/224/3
f 139/299/5 140/300/5 141/301/5
f 140/302/10 142/303/10 143/304/10 141/305/10
f 142/306/3 144/307/3 143/308/3
f 139/299/5 141/301/5 145/309/5
f 141/305/11 143/304/11 146/310/11 145/311/11
f 143/308/3 144/307/3 146/312/3
f 139/299/5 145/309/5 147/313/5
f 145/314/12 146/315/12 148/316/12 147/317/12
f 146/312/3 144/307/3 148/318/3
f 139/299/5 147/313/5 149/319/5
f 147/317/13 148/316/13 150/320/13 149/321/13
f 148/318/3 144/307/3 150/322/3
f 139/299/5 149/319/5 151/323/5
f 149/321/14 150/320/14 152/324/14 151/325/14
f 150/322/3 144/307/3 152/326/3
f 139/299/5 151/323/5 153/327/5
f 151/325/15 152/324/15 154/328/15 153/329/15
f 152/326/3 144/307/3 154/330/3
f 139/299/5 153/327/5 155/331/5
f 153/332/16 154/333/16 156/334/16 155/335/16
f 154/330/3 144/307/3 156/336/3
f 139/299/5 155/331/5 157/337/5
f 155/335/17 156/334/17 158/338/17 157/339/17
f 156/336/3 144/307/3 158/340/3
f 139/299/5 157/337/5 159/341/5
f 157/339/18 158/338/18 160/342/18 159/343/18
f 158/340/3 144/307/3 160/344/3
f 139/299/5 159/341/5 161/345/5
f 159/343/19 160/342/19 162/346/19 161/347/19
f 160/344/3 144/307/3 162/348/3
f 139/299/5 161/345/5 163/349/5
f 161/347/20 162/346/20 164/350/20 163/351/20
f 162/348/3 144/307/3 164/352/3
f 139/299/5 163/349/5 165/353/5
f 163/354/21 164/355/21 166/356/21 165/357/21
f 164/352/3 144/307/3 166/358/3
f 139/299/5 165/353/5 167/359/5
f 165/357/22 166/356/22 168/360/22 167/361/22
f 166/358/3 144/307/3 168/362/3
f 139/299/5 167/359/5 169/363/5
f 167/361/9 168/360/9 170/364/9 169/365/9
f 168/362/3 144/307/3 170/366/3
f 139/299/5 169/363/5 171/367/5
f 169/365/23 170/364/23 172/368/23 171/369/23
f 170/366/3 144/307/3 172/370/3
f 139/299/5 171/367/5 173/371/5
f 171/372/24 172/373/24 174/374/24 173/375/24
f 172/370/3 144/307/3 174/376/3
f 139/299/5 173/371/5 175/377/5
f 173/375/25 174/374/25 176/378/25 175/379/25
f 174/376/3 144/307/3 176/380/3
f 139/299/5 175/377/5 140/300/5
f 175/379/26 176/378/26 142/303/26 140/302/26
f 176/380/3 144/307/3 142/306/3
